<svg width="20" height="20" viewBox="0 0 20 20" fill="none" xmlns="http://www.w3.org/2000/svg">
<path d="M4 4.75C4 4.33579 4.33579 4 4.75 4H6.36465C6.73128 4 7.04418 4.26506 7.10445 4.6267L7.65893 7.95361C7.71306 8.27838 7.54904 8.60048 7.25455 8.74773L6.09344 9.32828C6.93067 11.4087 8.59126 13.0693 10.6717 13.9066L11.2523 12.7455C11.3995 12.451 11.7216 12.2869 12.0464 12.3411L15.3733 12.8955C15.7349 12.9558 16 13.2687 16 13.6353V15.25C16 15.6642 15.6642 16 15.25 16H13.75C8.36522 16 4 11.6348 4 6.25V4.75Z" fill="#A9A9A9"/>
</svg>
