<svg width="24" height="24" viewBox="0 0 24 24" fill="none" xmlns="http://www.w3.org/2000/svg">
<path fill-rule="evenodd" clip-rule="evenodd" d="M11.2074 0.0315542C8.3636 0.434744 6.19178 2.71705 5.7823 5.73261C5.70302 6.31637 5.75556 7.46976 5.89292 8.16259C6.45656 11.005 8.46029 14.0763 11.4398 16.6647C12.0037 17.1546 11.9997 17.155 12.7121 16.5334C13.3755 15.9546 14.5729 14.712 15.134 14.0203C16.6024 12.2099 17.6048 10.3168 18.0192 8.57054C18.2028 7.7975 18.236 7.49754 18.2361 6.6122C18.2362 5.88203 18.2218 5.69078 18.1367 5.29186C17.8515 3.95664 17.2918 2.87937 16.394 1.93794C15.4994 0.999939 14.4315 0.389266 13.2089 0.116623C12.7274 0.00926456 11.679 -0.0353146 11.2074 0.0315542ZM12.9353 2.99302C14.0789 3.33383 14.954 4.2136 15.3505 5.42132C15.4842 5.82829 15.4908 5.8797 15.492 6.52232C15.4931 7.09165 15.4783 7.25087 15.3965 7.54688C15.0308 8.86961 14.0441 9.85012 12.7635 10.1631C12.3167 10.2724 11.6055 10.2632 11.1646 10.1425C9.83966 9.77975 8.87109 8.74499 8.56765 7.36798C8.43076 6.74688 8.46299 6.01555 8.65345 5.42132C9.08007 4.09046 10.1107 3.15754 11.4359 2.90273C11.7671 2.83906 12.5836 2.88822 12.9353 2.99302ZM11.5075 3.73217C10.9365 3.84811 10.4701 4.10871 10.0617 4.53999C9.21816 5.43099 9.02667 6.70014 9.5627 7.84801C9.90249 8.57571 10.6094 9.16575 11.365 9.35256C11.7143 9.43889 12.2892 9.43812 12.6432 9.3509C13.3926 9.16625 14.0928 8.57939 14.4369 7.84748C14.8326 7.00591 14.8403 6.12655 14.4591 5.30507C13.9228 4.14902 12.69 3.4921 11.5075 3.73217ZM3.81432 14.0184C3.73181 14.0479 3.66757 14.0901 3.67151 14.1123C3.6779 14.1479 4.74234 14.777 10.6331 18.226L12.073 19.0692L14.9189 16.6012C16.4842 15.2438 17.8029 14.0942 17.8494 14.0465C17.9329 13.9607 17.924 13.9597 17.0565 13.9622L16.1791 13.9648L15.9288 14.288C14.9794 15.5143 13.0418 17.4516 12.4722 17.7441C12.2075 17.88 11.7933 17.88 11.5285 17.7442C11.3039 17.629 10.5573 16.9786 9.82718 16.2621C9.30701 15.7517 8.53011 14.8776 8.0725 14.288L7.82161 13.9648H5.89296C4.51103 13.9648 3.92181 13.9799 3.81432 14.0184ZM15.8148 16.885C13.9643 18.4954 12.3925 19.8509 12.3218 19.8971C12.2511 19.9433 12.1557 19.9812 12.11 19.9813C12.0642 19.9814 10.5695 19.1282 8.78846 18.0852C7.00734 17.0423 5.00416 15.8694 4.33694 15.4788C3.66971 15.0882 3.10646 14.7686 3.08525 14.7686C3.02413 14.7686 2.99426 15.0293 3.0084 15.4396L3.02143 15.8186L9.1288 19.4051L15.2362 22.9916L16.1994 22.992L17.1627 22.9924L15.3637 21.9388C14.3742 21.3593 13.5213 20.8415 13.4682 20.7881C13.3604 20.6795 13.338 20.4123 13.4268 20.2937C13.4555 20.2553 14.9929 18.913 16.8434 17.3106C18.6938 15.7083 20.2634 14.3412 20.3314 14.2726L20.4551 14.148L20.31 14.0668C20.2 14.0052 20.0458 13.9821 19.6721 13.9712L19.1792 13.9569L15.8148 16.885ZM17.7088 17.622C15.9337 19.1615 14.473 20.4296 14.463 20.4402C14.4529 20.4508 15.4194 21.031 16.6108 21.7297L18.7769 23L19.4709 22.9849C20.1492 22.9702 20.1702 22.9668 20.398 22.8351C20.6367 22.6971 20.8496 22.4374 20.9438 22.1693C21.0007 22.0075 21.0239 14.966 20.9679 14.8744C20.9477 14.8414 19.7763 15.8289 17.7088 17.622ZM3.00326 19.3841C3.00561 21.2876 3.02057 22.0662 3.05683 22.1693C3.15112 22.4374 3.36396 22.6971 3.60264 22.8351L3.83575 22.9699L8.71877 22.9819C11.4045 22.9885 13.5935 22.9853 13.5832 22.9748C13.5531 22.9439 12.9026 22.5604 8.01447 19.6917C5.45688 18.1907 3.28231 16.9131 3.18215 16.8524L3 16.7421L3.00326 19.3841Z" fill="#3E497A"/>
</svg>
