<svg width="24" height="24" viewBox="0 0 24 24" fill="none" xmlns="http://www.w3.org/2000/svg">
<path fill-rule="evenodd" clip-rule="evenodd" d="M3.86578 2.11397C3.75688 2.21126 3.73821 2.25414 3.73821 2.40677V2.58565L4.67583 3.52316L5.61348 4.46068L6.84347 3.23036L8.0735 2H6.03343H3.99336L3.86578 2.11397ZM7.57567 3.47466L6.10128 4.94927L6.97081 5.81808L7.84035 6.68686L10.1641 4.36128C11.4422 3.08222 12.4952 2.02769 12.5041 2.01785C12.5131 2.00805 11.7396 2 10.7853 2H9.0501L7.57567 3.47466ZM10.9154 4.58773L8.32763 7.17541L9.20678 8.05379L10.0859 8.93217L13.5524 5.46607L17.0189 2H15.261H13.5032L10.9154 4.58773ZM14.2847 5.71037L10.5741 9.42069L11.4529 10.2995L12.3318 11.1782L16.9213 6.5891L21.5108 2H19.753H17.9953L14.2847 5.71037ZM17.3996 7.08722L12.8196 11.6669L13.6987 12.5452L14.5779 13.4237L18.2889 9.71303L22 6.00243L21.9898 4.255L21.9796 2.50758L17.3996 7.08722ZM2.24952 3.75496C2.20417 3.77426 2.12945 3.83788 2.08351 3.89627C2.00219 3.99965 2 4.03476 2 5.24696V6.49149H2.58767C3.15956 6.49149 3.17796 6.49407 3.27124 6.58738C3.4017 6.71779 3.4017 6.92916 3.27124 7.05957C3.17796 7.15288 3.15956 7.15546 2.58767 7.15546H2V7.85847V8.56149H2.58767C3.15956 8.56149 3.17796 8.56407 3.27124 8.65737C3.4017 8.78778 3.4017 8.99915 3.27124 9.12956C3.17796 9.22287 3.15956 9.22545 2.58767 9.22545H2V9.92847V10.6315H2.58767C3.15956 10.6315 3.17796 10.6341 3.27124 10.7274C3.4017 10.8578 3.4017 11.0691 3.27124 11.1996C3.17796 11.2929 3.15956 11.2954 2.58767 11.2954H2V11.9985V12.7015H2.58767C3.15956 12.7015 3.17796 12.7041 3.27124 12.7974C3.4017 12.9278 3.4017 13.1391 3.27124 13.2696C3.17796 13.3629 3.15956 13.3654 2.58767 13.3654H2V14.0685V14.7715H2.58767C3.15956 14.7715 3.17796 14.774 3.27124 14.8674C3.33745 14.9335 3.36713 15.0066 3.36713 15.1034C3.36713 15.2003 3.33745 15.2734 3.27124 15.3395C3.17796 15.4329 3.15956 15.4354 2.58767 15.4354H2V16.1384V16.8415H2.58767C3.15956 16.8415 3.17796 16.844 3.27124 16.9373C3.4017 17.0678 3.4017 17.2791 3.27124 17.4095C3.17796 17.5028 3.15956 17.5054 2.58767 17.5054H2V18.2084V18.9115H2.58767C3.15956 18.9115 3.17796 18.914 3.27124 19.0073C3.4017 19.1377 3.4017 19.3491 3.27124 19.4795C3.17796 19.5728 3.15956 19.5754 2.58767 19.5754H2V20.6534V21.7313L2.13281 21.8641L2.26561 21.9969H3.3437H4.42178V21.4093C4.42178 20.8375 4.42435 20.8191 4.51767 20.7258C4.58384 20.6596 4.65696 20.6299 4.75379 20.6299C4.85063 20.6299 4.92375 20.6596 4.98992 20.7258C5.08323 20.8191 5.08581 20.8375 5.08581 21.4093V21.9969H5.78891H6.492V21.4093C6.492 20.8375 6.49458 20.8191 6.5879 20.7258C6.65407 20.6596 6.72719 20.6299 6.82402 20.6299C6.92085 20.6299 6.99398 20.6596 7.06014 20.7258C7.15346 20.8191 7.15604 20.8375 7.15604 21.4093V21.9969H7.85913H8.56223V21.4093C8.56223 20.8375 8.56481 20.8191 8.65813 20.7258C8.78855 20.5954 8.99995 20.5954 9.13037 20.7258C9.22369 20.8191 9.22627 20.8375 9.22627 21.4093V21.9969H9.92936H10.6325V21.4093C10.6325 20.8375 10.635 20.8191 10.7284 20.7258C10.8588 20.5954 11.0702 20.5954 11.2006 20.7258C11.2939 20.8191 11.2965 20.8375 11.2965 21.4093V21.9969H11.9996H12.7027V21.4093C12.7027 20.8375 12.7053 20.8191 12.7986 20.7258C12.929 20.5954 13.1404 20.5954 13.2708 20.7258C13.3641 20.8191 13.3667 20.8375 13.3667 21.4093V21.9969H14.0698H14.7729V21.4093C14.7729 20.8375 14.7755 20.8191 14.8688 20.7258C14.9992 20.5954 15.2106 20.5954 15.3411 20.7258C15.4344 20.8191 15.4369 20.8375 15.4369 21.4093V21.9969H16.14H16.8431V21.4093C16.8431 20.8375 16.8457 20.8191 16.939 20.7258C17.0695 20.5954 17.2809 20.5954 17.4113 20.7258C17.5046 20.8191 17.5072 20.8374 17.5072 21.4108V22L18.7758 21.9887L20.0445 21.9774L20.1527 21.8691C20.2388 21.783 20.261 21.7249 20.261 21.586V21.4111L11.4322 12.5833C3.59673 4.74872 2.58806 3.75344 2.46768 3.73762C2.39307 3.72782 2.29491 3.73563 2.24952 3.75496ZM18.5228 10.4556L15.0661 13.9122L15.9449 14.791L16.8238 15.6698L19.4119 13.0818L22 10.4937L21.9898 8.74638L21.9796 6.99903L18.5228 10.4556ZM19.6361 13.7949L17.2926 16.1384L18.1715 17.0173L19.0504 17.8961L20.5252 16.4211L22 14.946L21.9898 13.1987L21.9796 11.4514L19.6361 13.7949ZM8.9919 15.0253L12.5268 18.5599H8.98206H5.43736V15.0253C5.43736 13.0813 5.44177 11.4907 5.4472 11.4907C5.45263 11.4907 7.04772 13.0813 8.9919 15.0253ZM20.759 17.1637L19.5383 18.3847L20.4761 19.3218L21.4139 20.2589H21.5862C21.7916 20.2589 21.9471 20.137 21.9805 19.95C21.9923 19.8836 21.997 18.9548 21.9908 17.886L21.9796 15.9427L20.759 17.1637Z" fill="#3E497A"/>
</svg>
