<svg width="24" height="24" viewBox="0 0 24 24" fill="none" xmlns="http://www.w3.org/2000/svg">
<path fill-rule="evenodd" clip-rule="evenodd" d="M7.05798 1.0929C6.85787 1.14102 6.43772 1.30476 6.12429 1.45676C5.64695 1.68823 5.46946 1.81826 5.03184 2.25706C4.443 2.84755 4.12798 3.34373 3.89217 4.0522C3.75088 4.47665 3.73045 4.63736 3.72693 5.35364C3.72353 6.04922 3.74409 6.23808 3.86506 6.6227C4.31026 8.038 5.3152 9.09865 6.65329 9.56535C6.87394 9.64235 7.06519 9.69465 7.07823 9.68163C7.09133 9.66862 7.00534 9.43176 6.88716 9.15531C6.38205 7.97317 6.33888 6.4822 6.77371 5.23234C7.30701 3.69924 8.58561 2.40457 10.0823 1.88212C10.3032 1.805 10.4996 1.72625 10.5188 1.70712C10.5831 1.64296 9.6709 1.23872 9.18574 1.11633C8.61035 0.97117 7.61008 0.960154 7.05798 1.0929ZM15.0924 1.0334C14.7624 1.09659 14.1343 1.32244 13.7964 1.49943C13.5043 1.6524 13.4607 1.69417 13.5538 1.73127C14.7804 2.22013 15.2806 2.52158 15.9142 3.15408C16.9727 4.21073 17.5179 5.53706 17.5179 7.05508C17.5179 7.96621 17.3639 8.66681 16.9898 9.45688C16.938 9.56626 16.9068 9.66692 16.9205 9.68054C16.969 9.72903 17.7779 9.4136 18.1109 9.21632C18.5991 8.9271 19.2523 8.29599 19.58 7.79697C20.1006 7.00393 20.3585 6.02706 20.288 5.1146C20.2371 4.4554 20.1511 4.13797 19.8524 3.50741C19.317 2.37715 18.4178 1.58236 17.2147 1.17589C16.9072 1.07202 16.6473 1.03854 16.0323 1.02353C15.5987 1.013 15.1758 1.01742 15.0924 1.0334ZM11.1207 2.71547C9.36874 3.12018 8.09469 4.36327 7.68636 6.06629C7.51142 6.79594 7.54884 7.71851 7.78144 8.41052C8.23476 9.75912 9.29737 10.8204 10.649 11.2744C11.0717 11.4164 11.2119 11.4328 11.9999 11.4327C12.7931 11.4326 12.9266 11.4167 13.3643 11.2699C14.0472 11.0409 14.5614 10.7223 15.0966 10.1962C16.4705 8.84581 16.8161 6.85587 15.9743 5.14178C15.4012 3.97484 14.5043 3.20989 13.243 2.81238C12.7007 2.6415 11.6488 2.59343 11.1207 2.71547ZM5.633 11.013C4.2039 11.2995 3.01268 12.2395 2.41729 13.5504C2.06304 14.3303 2.04164 14.5075 2.0109 16.9153C1.97839 19.4602 1.99877 19.6432 2.35459 19.9984C2.65498 20.2983 2.94859 20.3656 3.95662 20.3656H4.77335L4.79881 18.2621C4.8221 16.3363 4.83538 16.1177 4.95635 15.6744C5.23043 14.6699 5.77859 13.7458 6.52061 13.0375C7.15203 12.4348 7.72535 12.0809 8.52789 11.7985L8.90632 11.6654L8.453 11.294L7.99974 10.9226L7.01347 10.9283C6.46883 10.9314 5.85063 10.9694 5.633 11.013ZM15.5326 11.2945L15.0936 11.6654L15.472 11.7986C16.3226 12.0978 17.0142 12.5446 17.6429 13.2009C18.1334 13.713 18.3634 14.0458 18.6719 14.6902C19.1396 15.6668 19.1723 15.8877 19.201 18.2621L19.2265 20.3656H20.0432C21.0512 20.3656 21.3448 20.2983 21.6452 19.9984C22.0018 19.6425 22.0222 19.4598 21.9886 16.9149C21.9559 14.4412 21.9347 14.2829 21.5217 13.4347C21.0825 12.5326 20.382 11.8322 19.4886 11.4017C18.7051 11.0241 18.4203 10.969 17.1238 10.9449L15.9717 10.9235L15.5326 11.2945ZM9.23322 12.7373C7.42768 13.2098 6.13635 14.721 5.93164 16.601C5.89538 16.9341 5.87598 18.0513 5.88683 19.1853C5.90775 21.3812 5.9092 21.39 6.29631 21.7152C6.85448 22.184 7.67969 22.0206 7.99052 21.3795C8.11404 21.1249 8.11913 21.0306 8.11913 19.0109C8.11913 16.865 8.13108 16.7419 8.3564 16.5692C8.52867 16.4372 8.89674 16.4754 9.06441 16.6428L9.21594 16.794L9.19811 19.1398C9.18089 21.405 9.17579 21.4943 9.04937 21.7427L8.91839 22H11.9999H15.0814L14.9505 21.7427C14.824 21.4943 14.8189 21.405 14.8017 19.1398L14.7839 16.794L14.9354 16.6428C15.1031 16.4754 15.4712 16.4372 15.6434 16.5692C15.8688 16.7419 15.8807 16.865 15.8807 19.0109C15.8807 21.0306 15.8858 21.1249 16.0093 21.3795C16.3201 22.0206 17.1453 22.184 17.7035 21.7152C18.0909 21.3898 18.0921 21.3826 18.1128 19.1731C18.1339 16.9319 18.0881 16.3208 17.8446 15.5852C17.3797 14.1809 16.1343 13.0572 14.6578 12.7096C14.3515 12.6376 13.8076 12.6198 11.9696 12.6217C9.91903 12.6239 9.61784 12.6366 9.23322 12.7373Z" fill="#3E497A"/>
</svg>
