<svg width="24" height="24" viewBox="0 0 24 24" fill="none" xmlns="http://www.w3.org/2000/svg">
<path fill-rule="evenodd" clip-rule="evenodd" d="M4.04952 0.111163C3.97356 0.190092 3.76537 0.858807 3.22837 2.74865C2.83267 4.14114 2.50893 5.33705 2.50893 5.40627C2.50893 5.59379 2.55241 5.67177 2.69812 5.7453C2.88935 5.84187 3.00146 5.82749 3.15329 5.68692C3.27534 5.57397 3.35688 5.31845 4.01686 2.98108C4.48077 1.33791 4.73556 0.360831 4.71791 0.29229C4.64431 0.00601586 4.25279 -0.100084 4.04952 0.111163ZM5.41496 0.470379C5.31181 0.558788 5.19943 0.913648 4.57606 3.11956C4.18021 4.5205 3.85629 5.71858 3.85629 5.78199C3.85629 5.96893 4.04683 6.14733 4.24647 6.14733C4.57648 6.14733 4.56923 6.16548 5.36343 3.35381C5.86549 1.57642 6.08042 0.746401 6.0596 0.665432C6.02025 0.512292 5.82883 0.368316 5.66459 0.368316C5.59281 0.368316 5.48047 0.414221 5.41496 0.470379ZM6.76371 0.833268C6.66257 0.920997 6.54461 1.29482 5.92482 3.49125C5.52818 4.897 5.20365 6.08737 5.20365 6.13654C5.20365 6.28528 5.2956 6.40558 5.46072 6.47294C5.63537 6.5442 5.7807 6.51154 5.90911 6.37228C5.98424 6.29081 7.43377 1.2608 7.43377 1.08167C7.43377 1.03476 7.37268 0.936737 7.29797 0.863796C7.13075 0.700541 6.93 0.68911 6.76371 0.833268ZM16.7918 0.775161C16.4334 0.916733 16.1357 1.63825 16.024 2.63638C15.8959 3.78061 16.1097 6.24041 16.4677 7.73951C16.5034 7.8892 16.5565 8.14436 16.5858 8.30653C16.7144 9.02029 17.1064 10.4638 17.1974 10.5587C17.3471 10.7149 17.7835 10.8804 18.2551 10.9598C19.0715 11.0974 19.197 11.2408 19.3714 12.2348C19.4235 12.5317 19.5612 13.2033 19.6774 13.7272C19.8949 14.7083 21.0802 19.8337 21.1226 19.9762C21.1844 20.1845 21.7572 20.2919 22.1744 20.1735C22.4727 20.0888 22.7927 19.8684 22.9156 19.6631L23 19.5219L22.4906 18.0038C20.7056 12.6837 20.2196 11.083 18.5623 5.0632C17.9853 2.96751 17.4915 1.18718 17.4649 1.10693C17.3697 0.819025 17.0632 0.667972 16.7918 0.775161ZM8.11684 1.1508C7.98596 1.28112 6.52625 6.38956 6.57062 6.56212C6.64254 6.84195 6.99816 6.94628 7.22089 6.75291C7.32176 6.66531 7.44083 6.28868 8.05978 4.0986C8.45651 2.69489 8.78114 1.48452 8.78114 1.4089C8.78114 1.09555 8.34329 0.925397 8.11684 1.1508ZM2.34715 6.36421C2.21144 6.73463 1.71909 8.67858 1.71909 8.84401C1.71909 9.20944 1.90196 9.49835 2.29284 9.75047C2.68371 10.0026 2.83225 10.219 2.83341 10.5383C2.83397 10.6965 2.46205 11.8627 1.38983 15.065C0.0078955 19.1923 -0.0512955 19.3833 0.0188603 19.4878C0.300645 19.9077 1.04416 20.2365 1.71185 20.2365C2.05538 20.2365 2.33633 20.1661 2.4403 20.0539C2.48621 20.0044 2.8598 18.3759 3.4663 15.5815C3.99089 13.1645 4.45526 11.1168 4.49824 11.0311C4.54126 10.9454 4.65374 10.8151 4.7482 10.7416C4.89683 10.626 4.97637 10.6029 5.33918 10.5702C5.88881 10.5207 6.11275 10.4065 6.39821 10.0303C6.45057 9.96121 7.12123 7.57803 7.0954 7.55276C7.08764 7.54523 6.05774 7.27166 4.80674 6.94487C3.55574 6.61809 2.49545 6.3403 2.45062 6.32755C2.40578 6.31481 2.35923 6.33132 2.34715 6.36421ZM11.1042 7.06576C10.456 7.11199 10.234 7.13689 10.1804 7.16923C10.1326 7.19808 10.14 7.29234 10.2175 7.64171C10.3525 8.25032 10.3465 8.36273 10.1714 8.50662C10.0081 8.64075 9.90131 8.65241 9.71193 8.55678C9.56381 8.48203 9.52567 8.39126 9.39089 7.79281C9.34131 7.57267 9.28774 7.37984 9.27185 7.36433C9.23538 7.32868 8.5223 7.55244 8.15392 7.71511L7.87515 7.83822L7.58017 8.94558C7.2299 10.2607 7.11617 10.5193 6.73765 10.8615C6.40583 11.1614 6.06295 11.3023 5.58589 11.3348C5.40004 11.3475 5.2385 11.3727 5.22698 11.391C5.21541 11.4092 4.98561 12.4502 4.71633 13.7043C4.44699 14.9585 4.21548 16.028 4.20182 16.0811C4.17891 16.1703 4.19267 16.1765 4.38097 16.1619C4.6583 16.1403 4.85055 16.2931 4.85055 16.535C4.85055 16.7847 4.68794 16.9185 4.30701 16.9822L3.99897 17.0338L3.92988 17.331C3.77893 17.9804 3.77136 17.9295 4.12014 18.6035C4.32764 19.0045 4.46163 19.2143 4.50818 19.2113C4.5473 19.2087 4.76014 19.0811 4.9812 18.9278C5.29504 18.71 5.41988 18.6489 5.55104 18.6489C5.75236 18.6489 5.94703 18.814 5.94703 18.9849C5.94703 19.1997 5.84203 19.3213 5.40873 19.6084C5.16974 19.7667 4.97353 19.9085 4.97274 19.9234C4.97005 19.9755 5.56191 20.6243 5.84449 20.879C6.00125 21.0203 6.25181 21.2278 6.40127 21.3401L6.67302 21.5442L6.9694 21.091C7.13243 20.8417 7.30824 20.6087 7.36013 20.5732C7.51629 20.4664 7.70478 20.4941 7.86121 20.6469C8.05282 20.8339 8.02369 20.9759 7.69038 21.4804C7.54574 21.6993 7.41654 21.906 7.40329 21.9397C7.35567 22.0608 8.99927 22.7389 9.45305 22.7854L9.59067 22.7994L9.69168 22.3005C9.81577 21.6874 9.82887 21.6556 9.99246 21.573C10.1874 21.4746 10.3059 21.4914 10.4573 21.6392C10.6191 21.7972 10.6241 21.8898 10.5049 22.5135L10.4208 22.9533L10.6751 22.9843C11.0013 23.0241 12.5836 22.9817 12.7113 22.9297L12.8084 22.8902L12.7019 22.4365C12.6433 22.1871 12.5944 21.9157 12.5932 21.8335C12.5901 21.6265 12.7645 21.4613 12.9858 21.4613C13.2379 21.4613 13.3524 21.6026 13.4474 22.0311C13.5728 22.5963 13.6135 22.7314 13.6587 22.7314C13.8761 22.7314 15.4174 22.0989 15.6788 21.9025C15.7673 21.8361 15.7604 21.8201 15.4578 21.3867C15.1038 20.8798 15.0666 20.7184 15.2603 20.5293C15.3432 20.4484 15.4249 20.418 15.5592 20.418C15.7626 20.418 15.8395 20.4914 16.2597 21.0861L16.4593 21.3687L16.6355 21.2326C17.0756 20.8923 18.0759 19.8232 18.0726 19.6968C18.0722 19.6818 17.886 19.5508 17.6589 19.4057C17.1503 19.0809 17.079 19.0063 17.079 18.7995C17.079 18.6786 17.1117 18.6097 17.2071 18.5296C17.4069 18.3618 17.5505 18.3913 18.0302 18.6988C18.2677 18.8511 18.4883 18.9855 18.5206 18.9976C18.6889 19.0607 19.53 16.9738 19.3742 16.8798C19.3453 16.8623 19.1034 16.8116 18.8366 16.7669C18.2653 16.6713 18.1198 16.5789 18.1198 16.3115C18.1198 16.1902 18.1554 16.1122 18.2556 16.0144C18.4133 15.8604 18.429 15.859 18.9429 15.953C19.1568 15.9922 19.3479 16.0177 19.3677 16.0097C19.3874 16.0017 19.2976 15.521 19.1682 14.9413L18.9328 13.8875L18.6234 13.9155C18.3336 13.9418 18.3063 13.9361 18.1936 13.8261C18.0654 13.7009 18.035 13.4963 18.1212 13.3391C18.1755 13.24 18.399 13.1152 18.524 13.1141C18.7336 13.1124 18.7418 13.0665 18.635 12.4961C18.5036 11.7943 18.4852 11.7541 18.295 11.7537C18.0897 11.7533 17.4505 11.6005 17.1803 11.4873C16.9082 11.3734 16.5642 11.0689 16.4333 10.8261C16.3789 10.7252 16.2381 10.2763 16.1205 9.82858L15.9066 9.01453L15.7599 9.22269C15.544 9.52906 15.2627 9.59011 15.0562 9.37546C14.8767 9.18898 14.9144 9.02822 15.2509 8.54368L15.5557 8.10481L15.3723 8.00311C14.8625 7.72037 13.4325 7.19754 13.3607 7.26762C13.3484 7.27964 13.2857 7.53362 13.2212 7.83205C13.0999 8.39398 13.038 8.50176 12.8039 8.5591C12.6596 8.59443 12.4692 8.51115 12.3757 8.3718C12.2991 8.25758 12.2991 8.22805 12.3766 7.7841C12.4214 7.52699 12.4691 7.27551 12.4825 7.2253C12.5037 7.1465 12.4794 7.13072 12.305 7.10981C11.9997 7.07316 11.3397 7.04898 11.1042 7.06576ZM12.7303 9.16281C13.9435 9.43176 14.9525 9.96965 15.7981 10.7984C17.5954 12.5598 18.1021 15.1679 17.0888 17.4412C16.2961 19.2194 14.6559 20.5124 12.6715 20.9233C12.0473 21.0525 10.953 21.0633 10.3451 20.9462C7.80983 20.4581 5.90493 18.5973 5.40553 16.1209C5.28542 15.5253 5.2963 14.4569 5.42866 13.8527C5.90535 11.6762 7.47596 9.9746 9.61743 9.31445C9.86019 9.23965 10.2052 9.15564 10.384 9.12779C10.5629 9.09994 10.7615 9.06837 10.8254 9.05766C11.1084 9.01026 12.3516 9.07885 12.7303 9.16281ZM11.0113 9.85171C8.779 10.045 6.82035 11.6529 6.27485 13.7398C5.90428 15.1574 6.18853 16.7171 7.04815 17.983C7.33095 18.3995 8.01165 19.0627 8.44453 19.3435C8.92498 19.6552 9.56721 19.94 10.1053 20.0799C10.7643 20.2513 11.7629 20.2831 12.431 20.1538C14.5128 19.7511 16.0625 18.324 16.623 16.2935C16.731 15.9024 16.7429 15.7779 16.7429 15.0427C16.7429 14.3031 16.7314 14.1843 16.6204 13.7819C16.1879 12.2129 15.139 10.9848 13.6494 10.3033C13.1747 10.0861 12.5008 9.90252 12.0566 9.8694C11.8777 9.85607 11.6582 9.83892 11.5688 9.83134C11.4793 9.82372 11.2285 9.83293 11.0113 9.85171ZM10.9996 10.7812C11.1478 10.9456 11.1398 11.1817 10.9812 11.3252C10.9136 11.3864 10.8232 11.4365 10.7803 11.4365C10.7374 11.4365 10.5478 11.4878 10.359 11.5504C9.02752 11.9926 8.06592 13.1551 7.8004 14.6437C7.73358 15.0183 7.61279 15.1561 7.35107 15.1561C7.21778 15.1561 7.14205 15.1258 7.05856 15.039C6.91852 14.8934 6.92015 14.6432 7.06487 14.0792C7.27525 13.2593 7.64136 12.611 8.24256 11.9937C8.83108 11.3895 9.41788 11.0197 10.2087 10.7549C10.6712 10.6 10.8414 10.6057 10.9996 10.7812Z" fill="#3E497A"/>
</svg>
