<svg width="24" height="24" viewBox="0 0 24 24" fill="none" xmlns="http://www.w3.org/2000/svg">
<path fill-rule="evenodd" clip-rule="evenodd" d="M18.6358 2.06412C18.256 2.24854 18.1263 2.716 18.3602 3.05787C18.5139 3.28244 18.6623 3.33869 19.1687 3.36413L19.6207 3.38684L19.0872 3.91095L18.5538 4.43509L18.3622 4.27881C17.617 3.67106 16.6251 3.20637 15.6111 2.99005C15.0482 2.86993 14.0167 2.82346 13.5033 2.89499C13.0367 2.96003 12.3972 3.11389 12 3.25672C9.94929 3.99397 8.33397 5.83552 7.89095 7.94115C7.80397 8.35475 7.83048 8.51951 8.01675 8.72261C8.26024 8.98807 8.64762 9.03091 8.9244 8.82299C9.10095 8.69033 9.15536 8.58252 9.24151 8.19476C9.62857 6.45195 10.9285 5.03596 12.6683 4.46175C13.1808 4.29265 13.6499 4.22287 14.2817 4.22178C15.7096 4.21936 17.0075 4.76253 17.9867 5.77231C18.7367 6.54576 19.1858 7.44214 19.3664 8.52655C19.4421 8.98056 19.4189 9.88437 19.3204 10.3251C18.7893 12.699 16.7211 14.3515 14.2817 14.351C13.2026 14.3508 12.293 14.0749 11.3452 13.4604C10.9329 13.193 10.2748 12.5264 9.98655 12.0841C9.85341 11.8799 9.69441 11.653 9.63317 11.58C9.28282 11.1625 8.62623 11.3147 8.46302 11.8513C8.39829 12.0642 8.46 12.248 8.74762 12.6988C10.2642 15.0757 13.1567 16.2059 15.9293 15.5048C17.968 14.9892 19.6868 13.4505 20.405 11.4978C21.112 9.57573 20.8549 7.41056 19.7229 5.75332L19.4971 5.4227L20.0739 4.85447L20.6508 4.2862V4.7469C20.6508 5.12868 20.6642 5.23351 20.7292 5.35911C20.8546 5.6011 21.0196 5.69308 21.3285 5.69308C21.5508 5.69308 21.6103 5.67744 21.7296 5.58777C21.9972 5.38678 22 5.3686 22 3.85345V2.49468L21.9014 2.32887C21.8356 2.21832 21.7454 2.13577 21.6309 2.08112C21.4667 2.00283 21.3995 1.99923 20.1125 2.00009C18.9541 2.00083 18.7477 2.00979 18.6358 2.06412ZM4.99603 7.76322C4.97421 7.77108 4.90508 7.78871 4.84242 7.80239C4.77119 7.81794 4.56663 7.98278 4.29667 8.2421L3.86484 8.65687L3.59429 8.39958C3.39782 8.21274 3.28373 8.13491 3.17774 8.11533C2.66032 8.01968 2.2225 8.46447 2.35544 8.95074C2.38143 9.0458 2.48758 9.19957 2.64111 9.36465L2.88548 9.62732L2.50631 10.0055C2.07806 10.4327 2 10.5574 2 10.8143C2 11.0763 2.13052 11.2836 2.37393 11.4082C2.51357 11.4798 2.82476 11.486 2.95635 11.4198C3.00873 11.3935 3.23472 11.1938 3.45857 10.976L3.8656 10.5801L4.35897 11.0682L4.85234 11.5564L4.64643 11.8326C3.12841 13.8689 3.01706 16.7635 4.37385 18.9173C5.32155 20.4216 6.73167 21.427 8.46825 21.8365C9.33397 22.0406 10.3725 22.0543 11.2758 21.8736C13.5329 21.422 15.4603 19.718 16.1587 17.5565C16.3221 17.0509 16.3419 16.9238 16.2848 16.748C16.1198 16.2395 15.4668 16.0965 15.1268 16.4945C15.0214 16.6179 14.9996 16.6687 14.8379 17.1656C14.597 17.9062 14.1708 18.5851 13.5861 19.1592C12.8704 19.862 11.9993 20.3309 11.0079 20.5471C10.5518 20.6466 9.64068 20.6673 9.1421 20.5896C8.11429 20.4292 7.15774 19.9631 6.40901 19.2579C5.35853 18.2684 4.80933 17.0079 4.80766 15.5825C4.80536 13.6114 5.90571 11.8766 7.70964 11.0074C8.89829 10.4346 10.3548 10.3509 11.6429 10.7814C12.6489 11.1175 13.6423 11.8791 14.2375 12.7703C14.5467 13.2333 14.6695 13.3559 14.8827 13.4147C15.1048 13.4759 15.3151 13.4217 15.5102 13.253C15.783 13.0171 15.7968 12.6671 15.549 12.2683C14.9815 11.3546 14.135 10.5359 13.2083 10.0044C12.6038 9.65762 11.8273 9.37931 11.0878 9.24429C10.6245 9.1597 9.66873 9.13203 9.19254 9.18941C8.03468 9.32892 6.95579 9.74987 6.06385 10.4101C5.95274 10.4923 5.84532 10.5596 5.82512 10.5596C5.80496 10.5596 5.57508 10.3489 5.31433 10.0914L4.8402 9.62314L5.26099 9.20212C5.57746 8.88546 5.69397 8.74083 5.73095 8.61872C5.84885 8.22931 5.5879 7.83104 5.1746 7.76959C5.09821 7.75822 5.01786 7.75536 4.99603 7.76322Z" fill="#3E497A"/>
</svg>
