<svg width="24" height="24" viewBox="0 0 24 24" fill="none" xmlns="http://www.w3.org/2000/svg">
<path fill-rule="evenodd" clip-rule="evenodd" d="M10.1613 0.0264518C10.0256 0.0337876 9.64093 0.0672245 9.30635 0.100742C5.6443 0.467859 2.70823 1.85977 2.12105 3.50713C1.67998 4.74458 2.56092 6.00318 4.53026 6.94918C6.10353 7.70494 8.04652 8.14371 10.3668 8.26725C13.4127 8.42941 17.146 7.61991 19.0017 6.39498C19.6753 5.95025 20.0575 5.54852 20.3144 5.01515C21.1768 3.2246 19.2633 1.40835 15.5457 0.488732C13.9872 0.103215 11.9619 -0.070657 10.1613 0.0264518ZM12.7096 0.730329C14.3905 1.20724 15.7745 2.03919 16.3854 2.9398C16.6459 3.32382 16.7358 3.58722 16.7368 3.96974C16.7375 4.22645 16.7179 4.3148 16.6107 4.53796C16.4615 4.84829 16.1076 5.24034 15.7484 5.49308C14.7765 6.17693 12.9727 6.61964 11.1683 6.61721C9.08296 6.61437 7.02821 5.97652 6.25348 5.09147C6.05047 4.85952 5.88335 4.52191 5.82379 4.22329C5.52925 2.74716 7.54277 1.46517 10.4613 1.27059C10.8687 1.24343 10.8869 1.2382 10.9429 1.13137C11.0336 0.95851 11.3673 0.691745 11.5756 0.625681C11.8325 0.544176 12.1602 0.574411 12.7096 0.730329ZM19.6148 1.30269C19.9361 1.544 20.3374 1.91558 20.5723 2.18907C20.8934 2.56304 21.2162 3.18658 21.3052 3.60497C21.3795 3.95466 21.3616 4.45528 21.261 4.84112C21.1719 5.1823 20.863 5.77184 20.6319 6.04144C20.5247 6.16664 20.2796 6.4668 20.0875 6.70848C19.6705 7.23293 18.3436 8.57957 17.4569 9.37824C15.3824 11.2468 12.4924 13.5076 8.96006 16.0251C8.36749 16.4475 7.88918 16.7995 7.8972 16.8074C7.90521 16.8153 8.14048 16.8255 8.41998 16.83C8.89821 16.8377 8.94469 16.8459 9.20721 16.9683C9.55198 17.1292 9.92367 17.4707 10.075 17.7658C10.1369 17.8864 10.2238 18.1282 10.2681 18.3031C10.3541 18.6424 10.4803 18.838 10.7151 18.9957C10.925 19.1365 11.1118 19.1697 11.5393 19.1421C12.1414 19.1032 12.5557 19.2442 12.9675 19.6282C13.2487 19.8905 13.3756 20.1042 13.4923 20.5119C13.5432 20.6897 13.5953 20.8455 13.6082 20.8582C13.6502 20.8996 15.4022 19.4132 15.3897 19.3469C15.3851 19.3225 14.9426 18.9331 14.4065 18.4815C13.8704 18.0299 13.4192 17.6213 13.4038 17.5736C13.3498 17.4056 13.3816 17.254 13.4957 17.1366C13.5856 17.044 13.6446 17.0203 13.7842 17.0203C13.9741 17.0203 13.9634 17.0122 15.5228 18.3318C15.8041 18.5698 16.0478 18.7596 16.0644 18.7537C16.1231 18.7324 17.7447 17.1746 17.7447 17.1394C17.7447 17.1198 17.4163 16.8255 17.0151 16.4854C15.9424 15.5763 15.8951 15.5271 15.8951 15.3219C15.8951 15.0577 16.1437 14.8637 16.4009 14.9274C16.4531 14.9403 16.9058 15.298 17.4069 15.7221C17.9081 16.1463 18.3356 16.4934 18.357 16.4934C18.3784 16.4934 18.4575 16.4234 18.5327 16.3379C18.6079 16.2525 18.8637 15.9734 19.101 15.7177C19.3384 15.462 19.6303 15.1412 19.7498 15.0048L19.9669 14.7568L19.3789 14.0951C18.6158 13.2364 18.6078 13.2257 18.6078 13.06C18.6078 12.9016 18.7749 12.7048 18.9453 12.6626C19.1415 12.6141 19.2928 12.7346 19.9082 13.4293L20.515 14.1143L20.6537 13.9562C21.089 13.46 21.8729 12.3425 21.8418 12.2625C21.831 12.2347 21.6348 11.9502 21.4059 11.6303C21.1771 11.3103 20.9785 11.0041 20.9647 10.9499C20.9255 10.796 21.0513 10.5813 21.2218 10.511C21.4879 10.4014 21.6017 10.4752 21.9887 11.0088L22.3273 11.4756L22.4248 11.2589C22.8571 10.2986 23.0424 9.18808 22.9919 7.86057C22.8867 5.09435 21.8183 2.75843 20.1169 1.57496C19.9538 1.46152 19.7463 1.333 19.6559 1.28939L19.4915 1.21008L19.6148 1.30269ZM11.7056 1.52317C11.6588 1.5819 11.6204 1.66068 11.6204 1.69826C11.6204 1.73583 11.5557 2.63814 11.4766 3.70342C11.3974 4.76869 11.3327 5.67757 11.3327 5.72317C11.3327 5.8037 11.3477 5.80536 11.8568 5.78047C12.4203 5.75291 13.3821 5.61276 13.447 5.54873C13.4689 5.52716 13.5184 4.87585 13.5569 4.10129C13.5955 3.32677 13.6383 2.52579 13.6519 2.32132L13.6767 1.94962L13.3552 1.82734C12.8677 1.64196 12.085 1.41637 11.9293 1.41637C11.8286 1.41637 11.7675 1.44555 11.7056 1.52317ZM9.81191 2.17164C7.9762 2.4457 6.64703 3.1863 6.64703 3.93504C6.64703 4.31075 6.97248 4.68634 7.60163 5.03672C8.18327 5.36067 9.29464 5.66809 10.1334 5.73707C10.4598 5.7639 10.4654 5.76276 10.4854 5.66748C10.4966 5.61422 10.5532 4.86848 10.6114 4.01026C10.6695 3.15205 10.7272 2.37234 10.7397 2.27763L10.7623 2.10538L10.4823 2.10935C10.3284 2.11154 10.0267 2.13958 9.81191 2.17164ZM14.4806 2.64239C14.4676 2.78173 14.4383 3.30606 14.4155 3.80762C14.3926 4.30917 14.3632 4.8521 14.35 5.01418L14.326 5.30883L14.5454 5.22412C15.1757 4.98079 15.7615 4.51089 15.8532 4.1751C15.9418 3.85078 15.8062 3.50754 15.4238 3.08818C15.2375 2.88395 14.6116 2.38908 14.5394 2.38908C14.52 2.38908 14.4935 2.50309 14.4806 2.64239ZM12.8431 3.46287C12.9239 3.55536 12.9357 3.61421 12.9357 3.92244C12.9357 4.32413 12.888 4.4291 12.6631 4.52171C12.5441 4.57075 12.5053 4.57075 12.3862 4.52171C12.1623 4.4295 12.1136 4.3236 12.1136 3.92921C12.1136 3.55901 12.163 3.43138 12.3338 3.35936C12.4875 3.29459 12.7414 3.34615 12.8431 3.46287ZM2.01151 8.67348C2.02289 11.1347 2.02409 11.1665 2.11439 11.4024C2.24435 11.7419 2.50317 12.1152 2.83647 12.4438C3.31569 12.9164 3.27664 12.9816 3.27664 11.7092V10.6103L3.39678 10.4919C3.56596 10.3251 3.80937 10.3251 3.97854 10.4919L4.09869 10.6103V11.991V13.3717L4.43778 13.5402C4.6243 13.6329 4.99883 13.7959 5.2701 13.9023L5.76333 14.0959L5.78388 12.9946C5.79851 12.2099 5.81948 11.8673 5.85676 11.803C6.01936 11.5225 6.48616 11.5826 6.60844 11.8998C6.62969 11.9548 6.64703 12.5269 6.64703 13.171V14.3422L6.80116 14.3829C7.31811 14.5193 8.50416 14.7506 8.68694 14.7506C8.73339 14.7506 8.74325 14.5338 8.74325 13.5113V12.2721L8.86339 12.1536C9.03257 11.9868 9.27598 11.9868 9.44515 12.1536L9.5653 12.2721V13.4136V14.5551L9.84274 14.3613C11.0477 13.5196 13.6321 11.5211 15.0525 10.3326C16.0853 9.46842 17.7323 8.02269 17.6841 8.02269C17.6738 8.02269 17.3943 8.11376 17.0631 8.2251C15.9671 8.59351 14.7792 8.85476 13.4289 9.02438C12.6221 9.1257 10.1456 9.12453 9.19538 9.02231C6.11245 8.69074 3.70817 7.79528 2.27867 6.44621L2 6.18322L2.01151 8.67348ZM6.36634 17.8369C5.6621 18.3279 5.55954 18.4527 5.55852 18.8198C5.55724 19.2688 5.50011 19.2129 7.83641 21.0504C10.4271 23.0879 10.206 22.9244 10.4405 22.9762C10.7539 23.0455 10.9278 22.9779 11.4613 22.5798C12.6049 21.7265 12.933 21.4584 12.9081 21.3974C12.8284 21.2015 12.7258 20.901 12.6689 20.6967C12.5935 20.4256 12.3929 20.1812 12.137 20.0484C11.9902 19.9723 11.9122 19.9629 11.4971 19.9714C11.2371 19.9767 10.9319 19.9599 10.8189 19.9339C10.1485 19.78 9.62662 19.2441 9.46086 18.5393C9.38157 18.2022 9.32468 18.091 9.14749 17.9266C8.87897 17.6774 8.77683 17.6483 8.20892 17.6589C7.74677 17.6675 7.66625 17.6581 7.40742 17.5651C7.24918 17.5083 7.08272 17.4538 7.0375 17.444C6.98165 17.432 6.76647 17.5579 6.36634 17.8369ZM8.23658 19.2351C8.34571 19.3164 8.86458 19.7207 9.38971 20.1335C10.39 20.92 10.4678 21.0056 10.4052 21.2516C10.3403 21.5067 9.98754 21.639 9.7697 21.4901C9.48305 21.2941 7.63299 19.8087 7.55716 19.7136C7.35379 19.4587 7.54824 19.0902 7.88721 19.0882C7.99819 19.0875 8.09083 19.1265 8.23658 19.2351Z" fill="#3E497A"/>
</svg>
