<svg width="20" height="20" viewBox="0 0 20 20" fill="none" xmlns="http://www.w3.org/2000/svg">
<path d="M2.5 7.50065C2.5 6.58018 3.24619 5.83398 4.16667 5.83398H4.94136C5.49862 5.83398 6.019 5.55548 6.32811 5.09182L7.00522 4.07615C7.31433 3.61249 7.83472 3.33398 8.39197 3.33398H11.608C12.1653 3.33398 12.6857 3.61249 12.9948 4.07615L13.6719 5.09182C13.981 5.55548 14.5014 5.83398 15.0586 5.83398H15.8333C16.7538 5.83398 17.5 6.58018 17.5 7.50065V15.0006C17.5 15.9211 16.7538 16.6673 15.8333 16.6673H4.16667C3.24619 16.6673 2.5 15.9211 2.5 15.0006V7.50065Z" stroke="white" stroke-width="1.6" stroke-linecap="round" stroke-linejoin="round"/>
<path d="M12.5 10.834C12.5 12.2147 11.3807 13.334 10 13.334C8.61929 13.334 7.5 12.2147 7.5 10.834C7.5 9.45327 8.61929 8.33398 10 8.33398C11.3807 8.33398 12.5 9.45327 12.5 10.834Z" stroke="white" stroke-width="1.6" stroke-linecap="round" stroke-linejoin="round"/>
</svg>
