<svg width="377" height="377" viewBox="0 0 377 377" fill="none" xmlns="http://www.w3.org/2000/svg">
<path d="M117.812 270.969C130.826 270.969 141.375 260.419 141.375 247.406C141.375 234.393 130.826 223.844 117.812 223.844C104.799 223.844 94.25 234.393 94.25 247.406C94.25 260.419 104.799 270.969 117.812 270.969Z" fill="white"/>
<path d="M270.969 259.188C283.982 259.188 294.531 248.638 294.531 235.625C294.531 222.612 283.982 212.062 270.969 212.062C257.956 212.062 247.406 222.612 247.406 235.625C247.406 248.638 257.956 259.188 270.969 259.188Z" fill="white"/>
<path d="M153.156 141.375C166.169 141.375 176.719 130.826 176.719 117.812C176.719 104.799 166.169 94.25 153.156 94.25C140.143 94.25 129.594 104.799 129.594 117.812C129.594 130.826 140.143 141.375 153.156 141.375Z" fill="white"/>
<path d="M164.938 188.5C171.444 188.5 176.719 183.225 176.719 176.719C176.719 170.212 171.444 164.938 164.938 164.938C158.431 164.938 153.156 170.212 153.156 176.719C153.156 183.225 158.431 188.5 164.938 188.5Z" fill="white"/>
<path d="M270.969 82.4688C283.982 82.4688 294.531 71.9195 294.531 58.9062C294.531 45.893 283.982 35.3438 270.969 35.3438C257.956 35.3438 247.406 45.893 247.406 58.9062C247.406 71.9195 257.956 82.4688 270.969 82.4688Z" fill="white"/>
<path d="M341.656 47.125C348.163 47.125 353.438 41.8504 353.438 35.3438C353.438 28.8371 348.163 23.5625 341.656 23.5625C335.15 23.5625 329.875 28.8371 329.875 35.3438C329.875 41.8504 335.15 47.125 341.656 47.125Z" fill="white"/>
<path d="M188.5 282.75C195.007 282.75 200.281 277.475 200.281 270.969C200.281 264.462 195.007 259.188 188.5 259.188C181.993 259.188 176.719 264.462 176.719 270.969C176.719 277.475 181.993 282.75 188.5 282.75Z" fill="white"/>
<path d="M188.5 353.438C97.7844 353.438 23.5625 279.216 23.5625 188.5C23.5625 97.7844 97.7844 23.5625 188.5 23.5625H192.034L208.528 24.7406L204.994 38.8781C203.816 43.5906 202.638 49.4812 202.638 54.1937C202.638 87.1812 228.556 113.1 261.544 113.1C273.325 113.1 285.106 109.566 295.709 102.497L311.025 120.169C306.312 124.881 303.956 130.772 303.956 136.663C303.956 151.978 319.272 164.938 335.766 159.047L349.903 153.156L352.259 168.472C353.437 175.541 353.438 182.609 353.438 188.5C353.438 279.216 279.216 353.438 188.5 353.438V353.438ZM180.253 47.125C106.031 51.8375 47.125 113.1 47.125 188.5C47.125 266.256 110.744 329.875 188.5 329.875C266.256 329.875 329.875 266.256 329.875 188.5V183.788C302.778 184.966 280.394 163.759 280.394 136.663V134.306C274.503 135.484 268.613 136.663 261.544 136.663C215.597 136.663 179.075 100.141 179.075 54.1937C179.075 51.8375 179.075 49.4813 180.253 47.125V47.125Z" fill="white"/>
</svg>
