<svg width="150" height="150" viewBox="0 0 150 150" fill="none" xmlns="http://www.w3.org/2000/svg">
<path fill-rule="evenodd" clip-rule="evenodd" d="M75 135C108.137 135 135 108.137 135 75C135 41.8629 108.137 15 75 15C41.8629 15 15 41.8629 15 75C15 108.137 41.8629 135 75 135ZM102.803 65.3033C105.732 62.3744 105.732 57.6256 102.803 54.6967C99.8744 51.7678 95.1256 51.7678 92.1967 54.6967L67.5 79.3934L57.8033 69.6967C54.8744 66.7678 50.1256 66.7678 47.1967 69.6967C44.2678 72.6256 44.2678 77.3744 47.1967 80.3033L62.1967 95.3033C65.1256 98.2322 69.8744 98.2322 72.8033 95.3033L102.803 65.3033Z" fill="#66D850"/>
</svg>
