<svg width="64" height="42" viewBox="0 0 64 42" fill="none" xmlns="http://www.w3.org/2000/svg">
<g clip-path="url(#clip0_2301_10084)">
<path d="M25.8755 9.20898H39.1244V32.7923H25.8755V9.20898Z" fill="#FF5F00"/>
<path d="M26.7167 21C26.7167 16.2083 28.988 11.9583 32.479 9.20833C29.9133 7.20833 26.6747 6 23.1416 6C14.7717 6 8 12.7083 8 21C8 29.2917 14.7717 36 23.1416 36C26.6747 36 29.9133 34.7917 32.479 32.7917C28.988 30.0417 26.7167 25.7917 26.7167 21Z" fill="#EB001B"/>
<path d="M57 21C57 29.2917 50.2284 36 41.8584 36C38.3254 36 35.0867 34.7917 32.5211 32.7917C36.0121 30.0417 38.2833 25.7917 38.2833 21C38.2833 16.2083 36.0121 11.9583 32.479 9.20833C35.0867 7.20833 38.3254 6 41.8584 6C50.2284 6 57 12.7083 57 21Z" fill="#F79E1B"/>
</g>
<defs>
<clipPath id="clip0_2301_10084">
<rect width="49" height="30" fill="white" transform="translate(8 6)"/>
</clipPath>
</defs>
</svg>
