<svg width="49" height="16" viewBox="0 0 49 16" fill="none" xmlns="http://www.w3.org/2000/svg">
<path d="M19.9886 1.14648L17.559 15.4192H21.4448L23.8765 1.14648H19.9886Z" fill="white"/>
<path d="M14.3007 1.15925L10.4948 10.8929L10.089 9.42317C9.33842 7.65233 7.20759 5.10912 4.70596 3.50636L8.18605 15.409L12.2978 15.402L18.4174 1.15625L14.3007 1.15925Z" fill="white"/>
<path d="M8.6138 2.18299C8.38792 1.31358 7.73328 1.05445 6.92073 1.02344H0.896042L0.846069 1.30757C5.53449 2.44611 8.63679 5.18941 9.92408 8.48797L8.6138 2.18299Z" fill="white"/>
<path d="M31.7523 3.8818C33.0236 3.86179 33.9451 4.13993 34.6607 4.42806L35.0115 4.59314L35.5372 1.49967C34.7677 1.21054 33.5613 0.900391 32.0561 0.900391C28.2162 0.900391 25.5097 2.83631 25.4887 5.61062C25.4638 7.6606 27.4167 8.80514 28.8919 9.48846C30.406 10.1888 30.9138 10.634 30.9068 11.2593C30.8948 12.2148 29.6994 12.653 28.583 12.653C27.0269 12.653 26.2004 12.4379 24.9241 11.9056L24.4233 11.6775L23.8766 14.872C24.7861 15.2712 26.4642 15.6144 28.2063 15.6324C32.291 15.6324 34.9456 13.7195 34.9735 10.7551C34.9905 9.13329 33.9541 7.89571 31.7083 6.88023C30.3491 6.21791 29.5175 5.7777 29.5255 5.10939C29.5255 4.5161 30.2311 3.8818 31.7523 3.8818Z" fill="white"/>
<path d="M45.5098 1.16406H42.5074C41.5749 1.16406 40.8813 1.41818 40.4715 2.34862L34.7017 15.4288H38.7825C38.7825 15.4288 39.4481 13.67 39.599 13.2848C40.0458 13.2848 44.0106 13.2908 44.5753 13.2908C44.6912 13.7891 45.049 15.4288 45.049 15.4288H48.6541L45.5098 1.16406ZM40.7174 10.3634C41.0372 9.54404 42.2656 6.37453 42.2656 6.37453C42.2446 6.41355 42.5824 5.54914 42.7833 5.01189L43.0451 6.24247C43.0451 6.24247 43.7897 9.65009 43.9456 10.3634H40.7174Z" fill="white"/>
</svg>
