<svg width="64" height="42" viewBox="0 0 64 42" fill="none" xmlns="http://www.w3.org/2000/svg">
<g clip-path="url(#clip0_2301_10083)">
<path d="M31.6988 12.3473L27.694 30.7221H22.8388L26.8789 12.3473H31.6988ZM52.1122 24.192L54.6639 17.2797L56.117 24.192H52.1122ZM57.5346 30.7221H62.0354L58.1016 12.3473H53.9551C53.0337 12.3473 52.254 12.8684 51.8996 13.702L44.6344 30.7221H49.7377L50.7301 27.9781H56.9321L57.5346 30.7221ZM44.8825 24.713C44.9179 19.8501 38.0425 19.6069 38.078 17.4186C38.078 16.7587 38.7159 16.064 40.1335 15.8903C40.8423 15.7861 42.7561 15.7166 44.9179 16.7239L45.7685 12.8336C44.5989 12.3821 43.1105 12 41.2321 12C36.4477 12 33.0809 14.5009 33.0455 18.0786C33.01 20.7185 35.4554 22.2121 37.2983 23.0804C39.1766 23.9835 39.8145 24.574 39.8145 25.3729C39.8145 26.6234 38.2906 27.1444 36.9085 27.1792C34.4631 27.2139 33.0455 26.5192 31.9114 26.0329L31.0254 30.0622C32.1595 30.5832 34.2504 31 36.4123 31.0347C41.5157 31 44.847 28.5338 44.8825 24.713ZM24.788 12.3473L16.9203 30.7221H11.8169L7.91849 16.0293C7.67041 15.1261 7.49321 14.8135 6.78441 14.4314C5.61489 13.8062 3.70112 13.2157 2 12.8684L2.10632 12.3473H10.3639C11.4271 12.3473 12.3485 13.042 12.5966 14.223L14.6521 24.8519L19.6846 12.3473H24.788Z" fill="#2A2A6C"/>
</g>
<defs>
<clipPath id="clip0_2301_10083">
<rect width="60" height="19" fill="white" transform="translate(2 12)"/>
</clipPath>
</defs>
</svg>
