<svg width="621" height="313" viewBox="0 0 621 313" fill="none" xmlns="http://www.w3.org/2000/svg">
<g clip-path="url(#clip0_1935_7849)">
<path d="M365.958 278.457C365.38 277.722 364.783 276.834 365.005 275.923C365.219 275.038 366.109 274.517 366.92 274.097C370.694 272.14 374.469 270.184 378.243 268.231C371.637 261.408 366.274 253.393 362.485 244.692C361.854 243.242 361.324 241.375 362.41 240.22C363.78 238.762 366.176 239.857 367.9 240.876C369.624 241.896 372.358 242.499 373.203 240.685C373.717 239.575 373.072 238.305 372.486 237.225C368.11 229.165 366.514 219.632 368.028 210.59C368.204 209.541 368.437 208.461 369.091 207.621C371.074 205.083 375.441 206.553 377.176 209.267C378.911 211.981 379.114 215.381 380.335 218.361C381.555 221.342 384.732 224.119 387.737 222.95C389.964 222.084 391.553 219.254 393.9 219.703C394.854 219.887 395.609 220.611 396.224 221.36C399.312 225.12 400.329 230.474 398.835 235.103C397.884 238.05 396.131 241.667 398.335 243.845C399.792 245.288 402.263 245.112 403.897 246.353C406.601 248.411 405.426 252.745 403.521 255.556C401.617 258.371 399.094 261.427 399.894 264.729C400.292 266.367 401.463 267.698 402.113 269.254C402.958 271.282 402.864 273.557 402.755 275.75C402.575 279.387 402.399 283.019 402.218 286.655C401.719 296.852 397.385 303.465 388.259 297.872C380.331 293.025 371.78 285.857 365.958 278.457Z" fill="#97A5D7"/>
<path d="M395.823 298.479C395.597 298.479 395.391 298.322 395.338 298.093C391.297 279.964 382.032 237.641 383.26 236.232C383.441 236.026 383.752 236.003 383.959 236.183C384.139 236.341 384.18 236.599 384.064 236.798C383.572 239.107 391.102 274.533 396.303 297.876C396.363 298.142 396.194 298.404 395.928 298.464C395.894 298.476 395.856 298.479 395.823 298.479Z" fill="white"/>
<path d="M383.839 268.021C383.211 264.291 383.978 259.984 387.012 257.719C391.154 254.63 398.177 256.194 400.986 251.86C395.368 242.946 391.718 232.802 390.366 222.354C389.663 216.937 390.88 209.725 396.277 208.832C399.206 208.349 402.695 210.013 404.934 208.06C406.229 206.928 406.462 205.016 406.391 203.303C406.045 194.741 400.502 187.142 399.537 178.629C398.189 166.727 407.427 154.604 419.276 152.722C430.727 152.722 420.752 174.888 426.858 183.982C429.9 184.14 431.568 180.646 432.875 177.902C434.182 175.158 437.453 172.286 439.845 174.164C440.566 174.73 440.964 175.619 441.208 176.5C442.842 182.355 439.019 188.151 437.089 193.916C435.158 199.682 437.002 208.206 443.09 208.368C449.031 208.521 453.947 200.09 459.25 202.771C462.78 204.555 462.514 209.695 461.132 213.395C459.498 217.762 457.042 221.818 453.928 225.289C451.686 227.786 449.076 230.031 447.51 232.997C445.944 235.962 445.734 239.999 448.119 242.357C450.229 244.441 453.771 244.689 455.63 246.998C458.935 251.107 454.274 256.76 450.038 259.901C446.662 262.405 443.285 264.909 439.909 267.414C437.089 269.505 446.327 264.79 445.276 268.133C444.224 271.481 434.092 282.993 437.603 282.96C454.503 278.225 425.957 294.311 421.375 296.219C416.027 298.445 412.246 297.823 407.679 294.701C399.281 288.957 385.611 278.532 383.839 268.021Z" fill="#D3D7E8"/>
<path d="M414.15 297.944C414.135 297.944 414.12 297.944 414.105 297.94C413.834 297.914 413.631 297.674 413.658 297.404L422.371 202.348C422.397 202.078 422.618 201.875 422.908 201.902C423.178 201.928 423.381 202.168 423.355 202.438L414.642 297.494C414.619 297.753 414.405 297.944 414.15 297.944Z" fill="white"/>
<path d="M419.772 236.611C419.667 236.611 419.561 236.577 419.471 236.51L401.572 222.797C401.355 222.632 401.313 222.321 401.482 222.103C401.651 221.886 401.959 221.849 402.177 222.013L420.076 235.726C420.294 235.891 420.335 236.202 420.166 236.42C420.068 236.544 419.922 236.611 419.772 236.611Z" fill="white"/>
<path d="M420.699 226.486C420.534 226.486 420.373 226.403 420.279 226.253C420.136 226.021 420.207 225.717 420.44 225.575L437.554 215.015C437.787 214.872 438.091 214.943 438.234 215.176C438.377 215.408 438.305 215.712 438.073 215.854L420.959 226.415C420.88 226.46 420.79 226.486 420.699 226.486Z" fill="white"/>
<path d="M101.906 98.6635C102 98.671 102.09 98.6935 102.184 98.7423C102.477 98.896 102.571 99.2184 102.627 99.507C103.149 102.165 103.164 101.52 102.672 104.946C103.461 102.828 103.171 103.192 104.542 101.314C104.809 100.95 105.102 100.575 105.545 100.369C108.399 99.0384 105.387 105.407 104.88 106.131C102.999 108.811 99.5661 109.332 96.3213 108.152C93.4746 107.117 90.8044 105.044 89.8956 102.457C89.8129 102.225 89.7604 101.932 89.9669 101.771C90.1096 101.659 90.3237 101.651 90.519 101.663C92.2653 101.745 93.8652 102.588 95.1533 103.623C96.4415 104.658 97.4855 105.891 98.6911 106.993C99.5436 107.777 101.511 107.829 102.732 108.017C104.809 108.335 105.665 107.679 107.524 106.851C107.93 106.671 108.369 106.51 108.827 106.536C109.285 106.562 109.759 106.836 109.826 107.226C109.868 107.458 109.762 107.69 109.635 107.897C108.016 110.525 103.994 109.962 102.315 107.724C100.715 105.587 99.7877 102.112 100.723 99.6869C100.911 99.1996 101.395 98.6298 101.906 98.6635Z" fill="#97A5D7"/>
<path d="M75.9775 167.624C78.1369 163.924 82.1854 161.382 85.5279 158.413C88.8703 155.445 91.717 151.366 90.5152 147.317C88.521 140.596 77.0328 138.455 75.2076 131.7C73.1233 123.974 85.0509 118.947 87.2103 111.292C88.4422 106.925 86.2189 102.269 82.9515 98.704C79.6842 95.139 75.4254 92.3612 71.6736 89.171C67.1294 85.3061 63.2049 80.6052 62.0745 75.2183C60.944 69.8314 63.1974 63.7135 68.6354 60.9807C71.6999 59.44 75.3653 59.0988 78.7453 58.1579C82.1253 57.217 85.5692 55.2901 86.2301 52.2762C86.5569 50.7804 86.1475 49.2435 85.8846 47.729C83.6876 35.1445 93.1141 21.9341 107.077 18.0354C106.525 21.1318 111.37 23.3099 114.772 22.219C118.171 21.1281 120.184 18.1854 121.885 15.4301C123.59 12.6747 125.483 9.70576 128.811 8.46119C131.481 7.46028 134.557 7.78268 137.46 8.1538C139.705 8.4387 142.331 8.98601 143.217 10.7929C143.585 11.5464 143.566 12.3898 143.517 13.1996C143.07 20.5283 140.629 27.6359 139.773 34.9346C138.917 42.2296 139.897 50.1956 145.365 55.8974C148.651 59.3275 153.394 61.7642 155.757 65.7116C159.501 71.9719 155.971 79.4318 152.219 85.5947C148.467 91.7576 144.362 98.794 147.115 105.414C149.883 112.068 181.189 103.9 177.509 147.482C176.619 158.042 162.16 148.708 164.646 158.995C165.698 163.343 156.173 160.505 155.693 164.91C155.539 166.308 162.201 172.246 161.837 173.615C160.575 178.357 155.392 179.061 159.764 182.222C162.047 183.871 165.037 185.138 166.024 187.552C167.801 191.89 161.803 195.522 156.59 196.354C152.238 197.048 150.007 183.387 146.593 186.109C142.582 189.303 139.041 200.324 117.859 200.005C109.101 199.874 103.408 176.37 97.309 181.228C83.3609 192.343 64.7822 186.806 75.9775 167.624Z" fill="#D3D7E8"/>
<path d="M112.388 65.2954L111.4 65.3174L116.241 281.965L117.229 281.943L112.388 65.2954Z" fill="#3E497A"/>
<path d="M114.258 134.167L113.574 133.454C115.328 131.775 130.805 117.043 133.967 116.428L134.158 117.395C131.976 117.818 121.063 127.655 114.258 134.167Z" fill="#3E497A"/>
<path d="M112.031 108.462C106.202 101.437 87.2404 78.341 87.9464 76.0093C88.014 75.7843 88.1793 75.6194 88.4009 75.5557L88.6825 76.5003C88.8215 76.4591 88.8966 76.3242 88.9003 76.2604C88.8365 78.2135 103.521 96.6609 112.793 107.832L112.031 108.462Z" fill="#3E497A"/>
<path d="M112.68 83.6298L111.914 83.0075C112.474 82.3215 125.618 66.1608 127.012 64.7588L127.714 65.4523C126.354 66.8206 112.816 83.4611 112.68 83.6298Z" fill="#3E497A"/>
<path d="M300.548 313.384C432.409 313.384 539.303 310.147 539.303 306.153C539.303 302.159 432.409 298.922 300.548 298.922C168.687 298.922 61.7928 302.159 61.7928 306.153C61.7928 310.147 168.687 313.384 300.548 313.384Z" fill="#D3D7E8"/>
<path d="M170.343 283.448C169.1 281.978 168.026 280.276 167.752 278.372C167.684 277.911 167.677 277.405 167.955 277.03C168.195 276.708 168.601 276.554 168.995 276.471C171.789 275.875 174.41 277.918 176.427 279.935C179.991 283.504 183.172 287.451 185.899 291.691C184.269 289.153 183.405 284.291 183.796 281.307C183.811 281.191 183.833 281.064 183.927 280.989C184.021 280.914 184.156 280.917 184.273 280.94C185.133 281.105 185.673 281.937 186.086 282.709C187.36 285.097 188.471 287.856 189.211 290.537C188.749 288.853 190.12 286.825 191.367 285.824C193.598 284.033 193.121 286.533 192.636 288.002C192.163 289.442 189.008 295.084 186.759 293.824C186.346 293.592 186.248 292.336 185.906 291.931C185.317 291.226 184.498 290.998 183.653 290.735C181.385 290.034 179.022 289.742 176.893 288.636C174.403 287.35 172.153 285.588 170.343 283.448Z" fill="#97A5D7"/>
<path d="M270.519 299.593C270.804 296.691 270.797 294.003 271.751 291.169C272.074 290.213 272.528 289.197 273.437 288.759C273.61 288.676 273.812 288.616 273.985 288.695C274.139 288.762 274.233 288.912 274.308 289.062C279.247 298.513 265.99 303.825 259.939 296.717C259.564 296.279 259.214 295.776 259.162 295.199C259.068 294.146 260.075 293.235 261.126 293.111C262.178 292.987 263.21 293.467 264.082 294.067C266.38 295.66 267.912 298.108 269.377 300.488C267.338 297.426 266.282 293.722 266.406 290.048C266.425 289.497 266.613 288.792 267.161 288.744C267.424 288.721 267.668 288.875 267.879 289.036C269.385 290.194 270.233 292.043 270.549 293.917C270.864 295.791 270.699 297.703 270.519 299.593Z" fill="#FD867A"/>
<path d="M536.637 288.146C536.757 288.149 536.881 288.179 537.005 288.247C537.396 288.457 537.538 288.937 537.628 289.368C538.473 293.326 538.451 292.355 538.03 297.547C538.917 294.305 538.567 294.875 540.224 291.947C540.547 291.377 540.903 290.796 541.463 290.451C545.083 288.239 541.579 298.038 540.967 299.167C538.699 303.339 534.279 304.37 529.993 302.833C526.234 301.484 522.64 298.563 521.296 294.74C521.175 294.395 521.085 293.964 521.344 293.701C521.521 293.521 521.799 293.495 522.05 293.495C524.319 293.491 526.452 294.642 528.187 296.104C529.922 297.566 531.36 299.343 532.994 300.914C534.151 302.027 536.705 301.963 538.301 302.155C541.016 302.481 542.086 301.431 544.441 300.048C544.956 299.744 545.515 299.47 546.112 299.478C546.709 299.485 547.34 299.857 547.453 300.441C547.521 300.79 547.397 301.146 547.247 301.465C545.316 305.532 540.058 304.989 537.741 301.738C535.529 298.638 534.106 293.484 535.165 289.765C535.375 289.023 535.965 288.134 536.637 288.146Z" fill="#FD867A"/>
<path d="M17.0567 290.942C17.1881 290.945 17.3233 290.979 17.4623 291.054C17.8904 291.286 18.0481 291.815 18.1495 292.291C19.0809 296.658 19.0584 295.586 18.5965 301.314C19.5767 297.738 19.1861 298.364 21.015 295.136C21.3718 294.51 21.7661 293.866 22.382 293.487C26.3742 291.047 22.5097 301.858 21.8337 303.102C19.3288 307.702 14.4541 308.842 9.72584 307.147C5.57972 305.659 1.61386 302.435 0.130415 298.218C-0.0047849 297.835 -0.0986739 297.359 0.182992 297.074C0.378281 296.876 0.686237 296.85 0.964147 296.846C3.4691 296.842 5.82007 298.113 7.73165 299.725C9.64698 301.337 11.2318 303.297 13.0345 305.033C14.3114 306.263 17.128 306.191 18.8894 306.401C21.8826 306.761 23.0656 305.603 25.6644 304.077C26.2315 303.743 26.8511 303.44 27.5084 303.447C28.1656 303.455 28.8604 303.867 28.9843 304.512C29.0594 304.894 28.9242 305.288 28.7552 305.64C26.6258 310.131 20.8235 309.528 18.266 305.944C15.8249 302.525 14.255 296.838 15.423 292.737C15.6634 291.909 16.3168 290.927 17.0567 290.942Z" fill="#E6E456"/>
<path d="M133.028 219.724C132.386 218.487 131.781 217.13 131.961 215.747C132.611 210.787 140.603 211.987 144.336 208.65C148.23 205.168 145.774 198.757 142.796 194.469C139.818 190.18 136.427 184.625 139.187 180.19C140.543 178.016 143.16 176.723 144.084 174.331C145.147 171.576 143.622 168.153 145.211 165.664C147.551 161.998 153.218 164.266 156.722 166.848C159.215 162.826 158.971 157.769 159.753 153.106C160.534 148.442 163.324 143.269 168.049 142.894C169.078 145.687 168.897 149.604 171.695 150.631C173.941 151.456 176.243 149.507 177.516 147.486C178.789 145.466 179.83 143.037 182.012 142.054C185.846 140.326 190.071 144.712 190.154 148.911C190.236 153.109 187.837 156.884 186.124 160.719C184.502 164.348 183.45 168.468 184.535 172.292C185.621 176.115 189.418 179.369 193.346 178.709C194.754 178.473 196.339 177.81 197.492 178.653C198.115 179.107 198.401 179.886 198.559 180.64C199.422 184.715 197.556 188.793 196.245 192.745C194.935 196.696 194.322 201.524 197.12 204.609C198.416 206.037 200.335 206.937 201.184 208.665C203.009 212.388 198.705 216.129 194.901 217.786C191.093 219.443 186.368 221.898 186.755 226.026C186.954 228.159 188.603 229.958 188.772 232.095C189.057 235.671 185.144 238.22 181.572 238.655C175.218 239.427 171.353 239.322 165.435 241.965C160.29 244.259 158.468 245.718 153.421 242.756C145.605 238.164 137.137 227.649 133.028 219.724Z" fill="#E6E456"/>
<path d="M169.384 186.108L146.124 297.246L147.091 297.448L170.351 186.31L169.384 186.108Z" fill="#3E497A"/>
<path d="M180.915 214.678L160.372 229.312L160.946 230.114L181.489 215.48L180.915 214.678Z" fill="#3E497A"/>
<path d="M159.472 185.993L158.507 186.202L164.16 212.25L165.125 212.042L159.472 185.993Z" fill="#3E497A"/>
<path d="M30.2462 260.911C30.7569 259.936 31.3766 258.98 32.2817 258.354C34.2533 257.001 36.886 257.582 39.2708 257.75C41.6555 257.919 44.6487 257.121 45.0844 254.77C45.3698 253.229 44.3708 251.779 43.5108 250.467C41.4415 247.31 39.8979 243.816 38.9628 240.161C38.1103 236.833 38.5535 232.169 41.9259 231.476C45.2496 230.79 48.3179 234.909 51.5552 233.894C49.6999 225.643 47.8447 217.392 45.9894 209.145C45.2496 205.864 44.5473 202.273 46.042 199.263C47.5405 196.249 52.28 194.802 54.2854 197.505C55.367 198.963 55.2356 200.946 55.168 202.761C54.9652 208.249 55.7839 213.774 57.5753 218.97C58.8935 222.794 62.972 227.108 66.2281 224.698C68.0157 223.375 69.8222 220.252 71.4333 221.785C69.1462 236.833 85.5278 248.697 87.1991 263.827C88.998 280.126 78.4111 305.093 58.9836 298.923C43.5183 294.012 19.7419 281.022 30.2462 260.911Z" fill="#FD867A"/>
<path d="M74.295 309.313C74.0734 309.313 73.8744 309.167 73.8143 308.942L55.8215 239.891C55.7539 239.629 55.9116 239.359 56.1745 239.287C56.4411 239.216 56.7115 239.377 56.7791 239.64L74.772 308.691C74.8396 308.953 74.6818 309.223 74.4189 309.295C74.3776 309.31 74.3363 309.313 74.295 309.313Z" fill="white"/>
<path d="M67.8054 284.411C67.7153 284.411 67.6289 284.388 67.5463 284.34L43.7661 269.742C43.5333 269.6 43.4619 269.296 43.6046 269.064C43.7474 268.831 44.0516 268.76 44.2844 268.902L68.0645 283.5C68.2974 283.642 68.3687 283.946 68.226 284.178C68.1359 284.328 67.9744 284.411 67.8054 284.411Z" fill="white"/>
<path d="M63.2499 265.33C63.2049 265.33 63.1598 265.322 63.1147 265.311C62.8518 265.236 62.7016 264.962 62.7767 264.7L69.2738 242.125C69.3489 241.863 69.6231 241.713 69.886 241.788C70.1489 241.863 70.2991 242.136 70.224 242.399L63.7231 264.974C63.663 265.187 63.4678 265.33 63.2499 265.33Z" fill="white"/>
<path d="M57.6016 288.275C56.6514 286.648 55.9642 284.706 56.4749 282.892C57.4626 279.376 62.2096 278.461 65.7136 279.518C69.2175 280.575 72.3158 282.888 75.9324 283.432C79.5528 283.975 84.0857 281.452 83.5036 277.846C83.2107 276.024 81.7347 274.667 80.4616 273.333C76.8075 269.498 74.2124 264.666 73.0331 259.504C72.5862 257.539 72.774 254.829 74.7344 254.349C75.8836 254.068 77.0215 254.784 77.9905 255.463C81.9901 258.267 85.9898 261.074 89.9932 263.878C88.9191 254.008 88.1605 242.972 94.3947 235.234C95.5552 233.791 97.5456 232.434 99.1229 233.405C99.8215 233.836 100.208 234.623 100.509 235.388C102.871 241.397 102.049 248.381 104.906 254.169C105.331 255.028 105.868 255.886 106.705 256.351C110.581 258.51 113.638 250.739 118.066 251.062C120.946 251.271 122.325 254.938 121.701 257.753C121.078 260.568 119.226 262.96 118.366 265.711C117.506 268.463 118.164 272.167 120.898 273.085C122.175 273.516 123.572 273.213 124.882 272.913C128.965 271.972 133.047 271.027 137.129 270.086C135.525 273.7 133.918 277.31 132.314 280.924C131.894 281.872 131.469 282.974 131.913 283.911C132.852 285.891 136.044 284.811 137.884 286.003C139.942 287.334 139.026 290.798 136.941 292.084C134.857 293.37 132.247 293.28 129.817 293.609C116.188 295.458 108.256 306.145 93.6736 303.364C81.8099 301.099 64.4442 300.005 57.6016 288.275Z" fill="#6E7BAF"/>
<path d="M103.363 303.806C103.119 303.806 102.905 303.622 102.871 303.375C101.215 290.318 98.6385 268.265 99.9905 267.279C100.208 267.117 100.52 267.166 100.682 267.387C100.824 267.582 100.802 267.845 100.644 268.013C99.9417 269.723 102.233 290.487 103.851 303.251C103.885 303.521 103.693 303.769 103.423 303.802C103.404 303.802 103.382 303.806 103.363 303.806Z" fill="white"/>
<path d="M101.125 284.41C101.001 284.41 100.877 284.365 100.783 284.271L90.7593 274.637C90.564 274.45 90.5565 274.135 90.7443 273.94C90.9321 273.745 91.2476 273.738 91.4429 273.925L101.466 283.559C101.662 283.747 101.669 284.062 101.481 284.256C101.384 284.361 101.256 284.41 101.125 284.41Z" fill="white"/>
<path d="M418.641 69.5425C417.909 71.578 417.271 73.7373 417.582 75.8778C417.834 77.6172 418.713 79.2329 419.9 80.5337C421.113 81.8683 422.78 82.9366 424.586 82.9067C425.349 81.0773 425.664 79.0605 425.488 77.0849C426.059 78.1533 426.629 79.2217 427.204 80.2901C427.888 81.5646 428.684 82.9441 430.051 83.4277C431.414 83.9113 433.311 82.7342 432.871 81.3547C432.653 80.6687 431.932 80.0951 432.101 79.3979C432.304 78.5582 433.536 78.5432 434.287 78.9743C435.034 79.4054 435.725 80.0989 436.589 80.0651C437.84 80.0127 438.467 78.3445 437.982 77.1936C437.498 76.0428 436.349 75.3343 435.267 74.7045C433.048 73.4074 430.287 72.2753 428.308 70.6409C427.193 69.7187 426.119 67.5294 425.037 66.8659C422.04 65.0253 419.956 65.5089 418.641 69.5425Z" fill="#FD867A"/>
<path d="M483.192 80.2186C483.503 80.6759 483.909 81.1033 484.442 81.2495C485.332 81.4894 486.264 80.8184 486.636 79.9749C487.007 79.1315 486.962 78.1718 486.906 77.2533C488.322 78.5804 490.26 79.6525 492.145 79.1839C494.03 78.7153 495.221 76.0313 493.782 74.7267C495.149 75.0828 496.622 75.4352 497.947 74.9404C499.273 74.4455 500.212 72.7211 499.389 71.574C498.976 70.9967 498.259 70.7343 497.587 70.5019C494.548 69.456 491.514 68.4064 488.476 67.3605C487.691 67.0905 486.876 66.8131 486.046 66.8844C479.838 67.4017 480.597 76.4211 483.192 80.2186Z" fill="#E6E456"/>
<path d="M199.231 127.284C199.543 127.741 199.948 128.169 200.481 128.315C201.372 128.555 202.303 127.884 202.675 127.04C203.047 126.197 203.001 125.237 202.945 124.319C204.361 125.646 206.299 126.718 208.184 126.249C210.069 125.781 211.26 123.097 209.822 121.792C211.189 122.148 212.661 122.501 213.986 122.006C215.312 121.511 216.251 119.787 215.429 118.639C215.016 118.062 214.298 117.8 213.626 117.567C210.588 116.521 207.553 115.472 204.515 114.426C203.73 114.156 202.915 113.879 202.085 113.95C195.877 114.467 196.636 123.483 199.231 127.284Z" fill="#D3D7E8"/>
<path d="M528.784 187.353C529.152 187.54 529.573 187.679 529.975 187.582C530.647 187.42 531.015 186.644 530.955 185.958C530.895 185.272 530.519 184.658 530.155 184.077C531.563 184.44 533.219 184.448 534.29 183.466C535.36 182.48 535.172 180.29 533.76 179.953C534.785 179.694 535.878 179.398 536.569 178.6C537.26 177.801 537.257 176.332 536.303 175.874C535.822 175.646 535.259 175.728 534.733 175.818C532.363 176.219 529.993 176.624 527.624 177.025C527.011 177.13 526.377 177.243 525.858 177.584C521.968 180.144 525.716 185.79 528.784 187.353Z" fill="#E6E456"/>
<path d="M466.265 131.888C465.026 132.274 460.054 117.242 455.179 123.697C450.826 129.462 462.401 133.095 466.265 131.888Z" fill="#E6E456"/>
<path d="M508.917 123.535C512.252 124.135 515.688 123.782 519.012 123.134C515.602 122.002 512.541 120.041 509.285 118.523C507.366 117.627 500.58 114.568 500.723 118.872C500.809 121.376 507.092 123.209 508.917 123.535Z" fill="#D3D7E8"/>
<path d="M376.012 123.502C380.71 125.305 386.148 125.095 390.693 122.932C388.751 123.854 381.06 120.585 378.983 119.985C376.08 119.146 371.735 116.619 368.858 117.98C369.883 120.548 373.383 122.493 376.012 123.502Z" fill="#D3D7E8"/>
<path d="M416.065 28.7643C420.763 30.5675 426.201 30.3575 430.745 28.1945C428.804 29.1167 421.113 25.8478 419.036 25.248C416.133 24.4083 411.787 21.8817 408.911 23.2425C409.936 25.8103 413.436 27.7559 416.065 28.7643Z" fill="#D3D7E8"/>
<path d="M222.245 30.0939C223.687 32.6281 225.129 35.1585 226.568 37.6926C227.277 38.9409 228.01 40.2155 229.084 41.1676C230.162 42.1198 231.664 42.7121 233.053 42.3448C233.613 42.1986 234.18 41.8274 234.278 41.2576C234.349 40.8415 234.142 40.4292 233.94 40.0618C231.589 35.8145 228.186 32.152 224.119 29.4941" fill="#E6E456"/>
<path d="M239.994 133.323C241.436 135.858 242.878 138.388 244.316 140.922C245.026 142.17 245.758 143.445 246.832 144.397C247.907 145.349 249.413 145.942 250.802 145.574C251.362 145.428 251.929 145.057 252.026 144.487C252.098 144.071 251.891 143.659 251.688 143.291C249.337 139.044 245.935 135.381 241.868 132.724" fill="#E6E456"/>
<path d="M192.125 31.8752C191.198 31.789 191.265 33.281 191.746 34.0795C193.89 37.6145 197.304 41.1645 201.42 40.7147C201.972 40.6547 202.558 40.4973 202.911 40.0699C203.685 39.1327 202.866 37.7457 202.002 36.8872C199.516 34.4168 196.467 32.5162 193.151 31.3691" fill="#FD867A"/>
<path d="M250.055 7.87221C250.562 7.94719 251.069 7.76725 251.542 7.57607C254.806 6.27901 257.866 4.48337 260.589 2.27163C258.336 2.24164 246.344 0.13861 245.075 1.40568C243.017 3.46372 247.655 7.51609 250.055 7.87221Z" fill="#D3D7E8"/>
<path d="M589.936 213.886C592.182 213.096 594.705 211.319 594.236 208.987C585.576 208.282 571.162 205.433 563.046 208.612C567.267 216.383 582.778 216.406 589.936 213.886Z" fill="#FD867A"/>
<path d="M574.714 240.854C579.634 241.896 585.091 239.568 587.731 235.299C584.464 235.467 581.17 235.115 578.012 234.26C575.439 233.563 568.36 229.713 567.102 234.043C566.114 237.443 572.266 240.333 574.714 240.854Z" fill="#E6E456"/>
<path d="M620.577 230.073C620.878 229.949 621.197 229.803 621.362 229.522C621.899 228.607 620.405 227.88 619.342 227.865C617.085 227.831 605.63 226.669 607.478 230.647C609.254 234.47 617.911 231.171 620.577 230.073Z" fill="#E6E456"/>
<path d="M480.063 254.318C465.656 252.185 453.894 250.085 443.048 247.712C427.699 244.353 412.117 237.523 394.016 226.221C377.671 216.013 364.49 204.25 354.842 191.257C351.548 186.826 347.928 182.515 344.424 178.346C342.993 176.644 341.562 174.942 340.15 173.229C338.76 174.901 337.145 176.37 335.346 177.608C332.793 179.362 330.449 180.014 328.384 179.542C326.712 179.163 325.274 177.892 324.538 176.149C323.809 174.425 323.9 172.539 324.778 171.104C326.806 167.79 331.163 167.182 335.301 167.377C334.362 165.904 334.051 164.761 334.573 163.947C335.016 163.261 335.699 162.89 336.552 162.875C338.34 162.86 340.608 164.476 341.389 165.612C343.173 168.187 342.151 170.504 340.976 172.161C342.448 173.949 343.939 175.722 345.43 177.495C348.945 181.679 352.584 186.005 355.897 190.469C365.451 203.331 378.509 214.982 394.714 225.1C412.684 236.32 428.131 243.098 443.33 246.423C454.146 248.788 465.882 250.884 480.254 253.013L480.063 254.318ZM334.07 168.667C330.949 168.667 327.441 169.27 325.897 171.793C325.24 172.869 325.184 174.305 325.747 175.639C326.318 176.993 327.411 177.971 328.669 178.26C330.355 178.646 332.353 178.061 334.592 176.524C336.349 175.317 337.919 173.874 339.263 172.228C339.237 172.202 339.215 172.176 339.188 172.146C338.039 170.894 337.051 169.765 336.27 168.757C335.587 168.701 334.839 168.667 334.07 168.667ZM338.129 168.948C338.663 169.585 339.301 170.32 340.067 171.156C341.295 169.312 341.352 167.883 340.3 166.365C339.707 165.507 337.855 164.198 336.597 164.198C336.59 164.198 336.578 164.198 336.567 164.198C336.158 164.206 335.876 164.352 335.673 164.663C335.512 164.914 335.576 165.608 336.984 167.501C337.773 167.576 338.539 167.67 339.263 167.771L339.079 169.075C338.817 169.038 338.497 168.993 338.129 168.948Z" fill="#3E497A"/>
<path d="M403.607 268.683C405.117 264.113 407.84 259.378 412.452 257.98C417.465 256.458 422.592 259.389 427.493 261.253C431.428 262.748 435.563 263.562 439.758 264.008C439.139 264.113 438.515 264.214 437.888 264.297C425.585 266.598 417.807 254.557 402.98 270.729C403.179 270.043 403.386 269.357 403.607 268.683Z" fill="#F2F179"/>
<path d="M429.014 282.891C424.732 282.891 421.093 284.181 417.803 286.186C429.273 285.481 440.19 287.802 451.968 293.028C455.851 294.752 460.879 295.835 465.082 296.465C470.039 297.207 477.99 298.591 482.741 296.99C485.73 295.981 488.441 294.748 490.89 293.26C491.378 293.481 491.87 293.684 492.381 293.852C495.408 294.834 498.687 294.864 501.695 295.899C504.801 296.964 507.651 299.093 510.933 299.089C512.09 299.089 513.581 298.208 513.097 297.162C512.928 296.799 512.56 296.578 512.214 296.375C508.376 294.111 505.634 291.348 502.318 288.503C502.912 288.72 503.584 288.934 504.358 289.14C507.734 290.044 511.005 291.277 514.426 292.004C515.373 292.207 516.349 292.405 517.295 292.199C518.689 291.895 519.736 290.782 520.69 289.721C521.134 289.226 521.592 288.713 521.806 288.087C522.02 287.457 521.93 286.677 521.411 286.257C520.533 285.541 519.271 286.28 518.268 286.808C515.628 288.199 510.821 285.912 508.034 284.844C505.664 283.937 503.911 281.339 502.318 279.652C503.603 276.567 505.191 273.272 506.081 269.932C507.159 268.417 508.583 267.079 510.509 266.936C512.417 266.798 514.298 267.338 516.172 266.768C517.325 266.415 519.136 265.452 519.117 264.027C519.109 263.386 518.392 262.802 517.956 262.431C516.717 261.373 515.211 260.597 513.761 259.874C512.931 259.462 512.218 259.015 512.12 258.007C512.045 257.209 511.906 256.455 512.924 257.778C514.385 259.679 516.105 259.814 516.105 259.814C517.404 260.399 518.388 261.894 519.883 261.872C521.558 261.846 522.489 260.391 523.826 259.488C524.198 259.237 524.592 258.929 524.679 258.479C524.814 257.763 524.112 257.197 523.492 256.83C520.961 255.33 517.663 254.408 515.425 252.496C515.219 252.32 515.046 252.122 514.862 251.93C514.069 253.4 512.008 252.954 512.969 254.423C507.749 254.423 504.572 249.13 499.351 250.015C498.48 250.015 498.574 252.631 498.574 253.52C500.313 255.289 504.294 257.227 503.422 258.997C503.422 260.399 502.206 260.811 500.677 260.89C498.217 259.177 493.004 255.42 490.139 255.012C490.139 258.554 490.943 265.043 487.397 265.932C481.19 267.701 477.791 270.505 471.583 267.851C472.469 269.621 470.546 272.425 472.323 272.425C480.555 275.019 490.319 278.951 496.531 283.888C496.546 284.132 497.305 285.32 497.305 285.556C496.719 289.069 493.804 291.018 490.616 291.434C486.263 286.01 480.51 280.799 476.018 283.787C460.057 290.857 444.092 283.776 429.014 282.891ZM496.666 283.989C496.97 284.233 497.267 284.484 497.567 284.732C497.222 284.454 496.918 284.207 496.666 283.989Z" fill="#F2F179"/>
<path d="M405.658 277.268C405.849 277.35 405.688 276.979 405.478 276.975C401.02 276.915 396.693 278.344 392.468 279.753C390.741 280.331 388.871 281.017 387.932 282.576C387.823 282.756 387.729 282.955 387.744 283.165C387.766 283.472 388.025 283.708 388.285 283.873C389.441 284.608 390.914 284.563 392.281 284.499C396.926 284.274 401.568 284.049 406.214 283.821" fill="#D6D324"/>
<path d="M478.654 221.764C479.285 221.764 479.804 221.247 479.804 220.617C479.804 219.987 479.285 219.47 478.654 219.47C478.024 219.47 477.505 219.987 477.505 220.617C477.505 221.25 478.024 221.764 478.654 221.764Z" fill="white"/>
<path d="M478.655 221.778C479.481 221.778 480.161 222.453 480.161 223.282H477.152C477.149 222.457 477.828 221.778 478.655 221.778Z" fill="white"/>
<path d="M388.912 289.709C392.401 287.565 396.014 285.383 398.428 282.077C400.982 278.583 401.407 274.122 403.258 270.298C405.324 266.036 409.77 263.232 414.303 262.22C421.243 260.672 427.913 264.128 434.782 264.435C439.052 264.626 443.322 264.66 447.596 264.552C451.75 264.447 455.918 264.671 459.986 263.622C465.315 262.246 470.749 260.214 475.256 256.863C480.213 253.178 482.594 247.311 487.386 243.592C490.601 241.1 495.07 238.783 499.227 238.727C503.546 238.667 507.876 241.227 510.569 244.462C512.458 246.73 513.108 250.1 515.173 252.244C514.366 253.714 513.176 254.857 514.156 256.327C513.566 255.468 511.042 255.412 510.066 255.004C507.219 253.808 504.831 251.607 501.796 250.872C501.015 250.681 500.095 250.629 499.494 251.165C498.848 251.742 498.863 252.803 499.288 253.557C499.911 254.655 501.195 255.345 502.115 256.181C503.163 257.133 503.978 258.73 503.208 259.914C502.514 260.986 500.899 261.035 499.742 260.495C498.581 259.956 497.68 258.992 496.591 258.314C495.232 257.47 493.065 257.253 492.411 259.09C492.137 259.862 492.22 260.705 492.306 261.519C493.181 269.582 481.606 269.987 476.086 269.125C475.079 268.967 472.263 267.884 472.233 269.492C472.218 270.355 473.817 271.464 474.456 271.858C475.613 272.577 476.927 272.99 478.215 273.44C482.41 274.913 503.096 282.403 496.358 289.593C495.663 290.335 494.736 290.826 493.774 291.149C493.087 291.377 492.355 291.531 491.634 291.449C487.998 291.036 485.846 286.062 482.925 284.206C478.763 281.567 475.733 284.157 471.669 285.342C462.397 288.041 452.692 286.44 443.371 284.881C438.688 284.097 434.001 283.306 429.258 283.018C426.069 282.823 423.091 283.992 420.143 285.038C416.793 286.227 413.605 286.485 410.142 287.081C406.901 287.64 403.697 288.416 400.547 289.357C397.197 290.358 393.34 293.398 389.96 294.294C388.908 294.571 387.616 294.755 386.88 293.956C385.648 292.633 387.368 290.658 388.912 289.709Z" fill="#E6E456"/>
<path d="M491.555 234.317C492.032 232.957 492.497 231.592 492.727 230.171C492.76 229.965 492.79 229.748 492.914 229.579C493.267 229.096 494.109 229.373 494.383 229.905C494.661 230.438 496.118 232.072 496.159 232.672C496.343 235.322 497.169 236.214 497.132 238.891C497.094 241.508 495.705 244.154 493.463 245.534C493.279 245.646 493.08 245.755 492.862 245.762C492.569 245.77 492.302 245.59 492.081 245.395C490.053 243.626 489.831 240.518 490.436 237.898L491.555 234.317Z" fill="#D6D324"/>
<path d="M510.468 246.814C510.851 246.851 511.324 247.072 511.268 247.451C511.223 247.743 510.885 247.878 510.599 247.964C509.683 248.253 508.804 248.669 508 249.198C506.457 250.214 505.912 249.404 507.118 248.126C507.967 247.23 509.228 246.694 510.468 246.814Z" fill="#3E497A"/>
<path d="M495.314 235.249C495.881 233.633 496.433 232.017 496.704 230.33C496.741 230.087 496.779 229.828 496.925 229.629C497.89 228.302 499.306 230.836 499.652 231.56C500.181 232.673 500.534 233.862 500.838 235.054C501.12 236.156 501.507 237.243 501.713 238.36C502.435 242.3 501.158 246.671 497.417 248.605C497.263 248.684 497.102 248.763 496.929 248.793C496.212 248.924 494.991 248.538 494.326 248.298C493.804 248.107 493.309 247.799 492.982 247.346C491.51 245.288 493.339 241.584 493.988 239.496C493.988 239.492 495.314 235.249 495.314 235.249Z" fill="#E6E456"/>
<path d="M497.8 233.497C497.725 233.546 497.658 233.614 497.598 233.677C497.203 234.108 497.053 234.599 496.786 235.083C496.185 236.178 495.622 237.287 495.111 238.416C494.011 240.852 492.753 243.63 494.518 246.078C494.586 246.175 494.664 246.273 494.781 246.322C494.931 246.389 495.115 246.363 495.28 246.333C496.471 246.123 497.924 245.947 498.889 245.253C499.55 244.781 499.87 244.046 500.061 243.323C500.884 240.226 499.813 237.006 498.668 233.988C498.563 233.715 498.367 233.385 498.037 233.407C497.951 233.419 497.872 233.452 497.8 233.497Z" fill="white"/>
<path d="M507.358 249.699C506.509 249.984 504.279 250.262 504.279 250.262C504.279 250.262 504.508 250.333 506.119 250.798C507.73 251.263 508.038 251.975 509.469 251.765C510.9 251.555 511.527 251.015 511.527 251.015C511.527 251.015 512.541 247.615 511.102 248.324C509.664 249.032 507.745 249.707 507.745 249.707L507.358 249.699Z" fill="#D6D324"/>
<path d="M511.992 249.568C511.992 249.568 511.771 249.025 511.992 249.568C512.214 250.112 512.037 250.824 511.519 251.105C511.328 251.21 511.102 251.248 510.881 251.244C510.389 251.233 509.897 250.978 509.641 250.554C509.386 250.131 509.397 249.55 509.709 249.164C510.017 248.777 510.618 248.65 511.039 248.909" fill="#3E497A"/>
<path d="M521.896 287.641C521.896 287.641 520.882 286.415 520.66 287.641C520.439 288.866 520.075 289.41 520.66 289.234C521.246 289.061 521.896 287.641 521.896 287.641Z" fill="#3E497A"/>
<path d="M520.349 289.979C520.36 290.024 520.439 289.983 520.424 289.938C520.409 289.893 520.356 289.882 520.311 289.874C519.898 289.822 519.466 290.002 519.207 290.328C518.952 290.654 518.884 291.119 519.034 291.505C519.275 291.599 519.492 291.336 519.643 291.126C519.947 290.688 520.345 290.317 520.803 290.043" fill="#3E497A"/>
<path d="M518.227 291.872C517.727 291.617 517.059 291.76 516.709 292.202C517.31 292.427 518.016 292.337 518.538 291.97" fill="#3E497A"/>
<path d="M509.536 298.692C509.469 298.343 509.3 297.976 508.969 297.848C508.639 297.721 508.181 298.024 508.29 298.358C508.342 298.519 508.5 298.624 508.658 298.688C508.92 298.793 509.217 298.811 509.491 298.744" fill="#3E497A"/>
<path d="M511.065 298.845C511.163 298.68 511.027 298.459 510.851 298.391C510.67 298.324 510.471 298.365 510.284 298.406C510.07 298.455 509.795 298.609 509.882 298.811C509.927 298.92 510.055 298.957 510.171 298.98C510.509 299.04 510.862 299.028 511.196 298.946" fill="#3E497A"/>
<path d="M388.912 289.71C388.912 289.71 389.975 290.857 388.912 291.003C387.849 291.15 387.744 290.613 387.744 290.613L388.912 289.71Z" fill="#3E497A"/>
<path d="M386.628 292.149C386.628 292.149 388.221 291.966 388.071 292.629C387.924 293.293 386.876 293.967 386.876 293.967L386.628 292.149Z" fill="#3E497A"/>
<path d="M389.918 292.123C390.14 292.037 391.248 292.183 390.437 292.626C389.625 293.068 389.295 293.364 389.385 292.701C389.475 292.037 389.918 292.123 389.918 292.123Z" fill="#3E497A"/>
<path d="M391.544 281.122C391.544 281.122 393.246 281.489 392.134 281.786C391.022 282.082 391.169 282.153 390.73 281.786C390.286 281.414 391.544 281.122 391.544 281.122Z" fill="#3E497A"/>
<path d="M389.006 281.384C389.006 281.384 390.106 281.766 389.381 282.032C388.66 282.298 387.928 282.576 387.928 282.576L389.006 281.384Z" fill="#3E497A"/>
<path d="M388.563 283.478C388.563 283.478 388.998 282.89 390.05 283.478C391.102 284.067 391.428 284.584 390.73 284.52C390.031 284.457 389.971 283.921 389.306 283.996C388.641 284.071 388.563 283.478 388.563 283.478Z" fill="#3E497A"/>
<path d="M521.073 256.747C521.1 256.624 521.13 256.496 521.205 256.395C521.464 256.035 522.024 256.151 522.429 256.331C523.161 256.65 523.868 257.028 524.536 257.467C525.922 258.374 523.86 260.327 522.711 260.29C521.186 260.241 520.841 257.887 521.073 256.747Z" fill="#3E497A"/>
<path d="M480.607 251.232C479.901 252.11 484.171 258.839 484.825 259.757C486.417 262.003 488.554 263.659 491.01 264.885C495.922 267.333 501.511 267.997 506.851 268.953L505.54 271.682C497.41 269.661 488.783 268.896 483.458 261.954C482.737 261.013 477.918 254.576 478.654 253.665C479.304 252.856 479.954 252.046 480.607 251.232Z" fill="#FD867A"/>
<path d="M304.84 73.2983L301.486 88.9192L288.376 91.7195C288.376 91.7195 297.528 82.0478 297.806 72.1849C298.088 62.3258 304.84 73.2983 304.84 73.2983Z" fill="#D4A79A"/>
<path d="M321.004 42.8103C321.004 42.8103 323.13 46.7952 318.77 57.2916C314.409 67.788 310.673 75.4991 307.484 74.3183C298.662 71.0606 294.482 65.0589 292.203 59.0423C289.405 51.6648 299.718 36.385 299.718 36.385L307.604 33.626L321.004 42.8103Z" fill="#EAC2AB"/>
<path d="M293.641 50.008C293.322 50.0529 294.832 63.2259 294.865 64.4105C292.631 62.1238 289.619 59.9158 287.801 57.2842C285.026 53.2618 283.182 49.5544 279.468 46.2892C277.579 44.6285 281.849 42.7767 281.695 42.6455C280.677 41.787 279.922 40.6699 281.578 39.8789C282.296 39.5378 283.174 39.3654 283.588 38.6906C283.914 38.1545 283.82 37.4385 283.494 36.8987C282.431 35.1555 278.754 33.9185 280.354 31.1819C281.282 29.5962 283.182 29.5737 283.839 27.6431C284.125 26.7997 284.294 25.8887 284.823 25.1727C287.17 22.0013 292.267 26.0124 295.279 25.5851C297.299 25.3002 298.595 23.3508 300.645 23.1072C302.748 22.856 305.835 22.9985 307.739 24.0519C310.169 25.3901 310.77 29.4687 313.039 30.4172C313.425 30.5784 313.861 30.5859 314.282 30.5859C318.353 30.6121 322.161 30.0798 325.646 32.5427C331.144 36.4301 329.052 52.1372 321.132 48.4672C320.223 48.0474 319.427 47.4213 318.555 46.9303C314.349 44.5723 309.737 49.5843 306.44 42.9529C305.85 41.7683 297.581 42.0794 297.78 45.4458C298.035 49.7905 293.731 50.0042 293.641 50.008Z" fill="#3E497A"/>
<path d="M295.466 49.7374C295.466 49.7374 292.714 45.4226 292.161 51.2556C291.609 57.0886 294.452 58.7605 294.452 58.7605L295.466 49.7374Z" fill="#EAC2AB"/>
<path d="M239.584 254.612L222.706 266.578L218.117 261.356L236.47 249.915C236.47 249.919 239.385 252.408 239.584 254.612Z" fill="#D4A79A"/>
<path d="M230.157 291.135C229.755 291.375 227.739 290.108 227.423 289.947C224.163 288.26 219.067 285.83 217.291 282.472C215.559 279.199 215.499 275.139 214.286 271.668C213.434 269.224 211.785 267.136 210.384 264.976C208.837 262.592 218.692 254.982 220.487 258.03C221.94 260.497 218.928 263.559 224.682 266.037C229.613 268.159 223.003 273.276 226.334 280.222C229.278 286.355 234.551 288.507 230.157 291.135Z" fill="#D6D324"/>
<path d="M278.503 196.207C274.409 210.775 276.79 211.011 266.71 222.373C261.794 227.914 231.596 239.156 226.529 244.569C219.3 252.292 225.346 260.089 230.709 262.353C234.217 263.834 235.738 271.447 241.071 265.783C241.597 265.225 251.004 256.663 253.761 251.478C256.916 245.548 279.809 233.537 286.04 227.831C300.874 214.257 293.378 207.734 302.455 189.962C305.911 183.195 305.144 175.99 306.17 168.208C306.797 163.443 299.515 141.153 289.386 145.093C283.084 147.549 285.492 160.309 285.758 165.344C285.946 168.826 286.446 172.665 285.582 176.031C283.805 182.94 280.437 189.321 278.503 196.207Z" fill="#2D3768"/>
<path d="M308.498 267.172L308.506 288.46L301.378 289.195L302.692 266.984C302.692 266.98 306.526 266.021 308.498 267.172Z" fill="#EAC2AB"/>
<path d="M333.964 302.424C333.964 302.424 328.617 303.027 318.927 301.644C309.238 300.261 298.52 298.282 296.897 296.445C295.275 294.608 296.672 282.331 299.849 283.024C303.026 283.722 303.252 288.584 309.756 285.716C315.329 283.257 317.707 290.717 325.68 294.312C333.653 297.914 336.883 299.361 333.964 302.424Z" fill="#E6E456"/>
<path d="M321.522 278.571C321.196 277.81 321.485 274.02 321.522 273.068C321.905 263.343 320.64 259.134 321.706 251.899C326.968 216.211 329.89 209.006 321.428 194.24C313.084 179.683 307.608 173.337 306.203 155.853C305.715 149.784 317.759 141.941 308.573 143.677C304.22 144.498 299.924 144.337 295.586 143.579C293.303 143.182 295.632 142.44 293.303 143.182C285.368 145.709 279.464 159.89 279.366 165.352C279.145 177.595 306.808 196.845 306.203 207.84C304.773 234.01 302.752 228.454 300.897 243.929C299.988 251.512 298.933 252.495 297.919 260.063C297.329 264.475 296.435 269.165 291.981 274.245C287.722 279.103 314.379 283.125 319.449 283.002C323.261 282.908 322.634 281.161 321.522 278.571Z" fill="#3E497A"/>
<path d="M344.172 163.1C343.789 159.486 343.92 160.356 342.069 160.562C340.217 160.764 331.381 156.881 328.346 155.302C327.193 154.703 322.604 150.14 317.286 144.63C316.227 145.814 314.642 146.575 312.532 146.501C311.837 146.474 311.149 146.429 310.473 146.362C315.765 151.306 320.197 155.28 321.425 155.981C324.932 157.983 323.614 158.414 325.233 161.533C326.851 164.652 327.944 165.728 330.506 166.159C333.067 166.59 336.161 166.148 337.525 165.799C338.888 165.45 339.17 170.087 339.812 171.523C340.454 172.959 341.618 169.371 341.618 169.371C341.618 169.371 341.528 172.202 342.876 172.854C344.217 173.502 344.559 166.714 344.172 163.1Z" fill="#EAC2AB"/>
<path d="M310.395 114.7C308.096 105.377 310.594 89.6963 304.01 82.7837C303.338 82.0752 302.621 81.3742 301.727 80.973C293.453 77.2543 288.466 84.032 284.909 89.91C281.349 95.7955 281.428 102.157 279.689 108.755C277.714 116.252 281.796 121.362 281.653 129.103C281.567 133.815 279.625 139.914 279.363 144.634C279.178 147.929 268.565 159.209 267.81 162.421C267.311 164.558 273.485 162.065 274.3 164.239C274.946 165.96 277.909 165.312 279.366 165.36C285 165.544 290.524 163.88 295.534 161.405C300.112 159.149 304.949 159.235 310.229 158.8C312.851 158.583 316.25 156.33 315.063 151.573C312.254 140.304 313.072 130.426 311.908 122.468C311.533 119.885 311.033 117.283 310.395 114.7Z" fill="#FC4F4F"/>
<path d="M297.915 91.7172C297.915 91.7172 293.236 101.895 295.466 111.765C297.697 121.636 297.43 133.043 303.605 140.282C309.779 147.52 318.788 163.051 320.328 162.414C321.868 161.777 323.501 158.422 327.847 156.371C332.192 154.321 330.404 153.005 321.519 146.205C312.633 139.405 307.24 132.604 306.2 121.639C305.167 110.671 310.661 82.4166 297.915 91.7172Z" fill="#FD867A"/>
<path d="M295.188 63.6545C295.188 63.6545 267.337 39.5577 255.913 64.213C244.488 88.8683 247.899 91.2787 226.289 84.711C195.52 75.3579 207.166 88.1073 195.08 91.7173C187.907 93.8578 201.585 100.039 201.585 100.039C201.585 100.039 201.277 102.461 208.048 103.724C214.82 104.988 216.555 105.194 217.107 106.956C217.659 108.718 219.615 107.428 218.654 104.729C217.693 102.03 217.118 94.2327 220.832 94.8587C224.546 95.4848 232.418 105.749 246.047 101.876C259.676 98.0039 264.374 72.3402 273.421 75.4929C282.465 78.6418 275.746 85.5094 292.368 82.308C308.99 79.1104 295.188 63.6545 295.188 63.6545Z" fill="#D6D324"/>
<path d="M295.71 67.5752C295.71 67.5752 299.019 76.887 304.664 76.8983C310.308 76.9095 310.372 75.3313 309.238 80.3771C308.104 85.4229 310.92 86.0526 309.238 89.2016C307.555 92.3505 303.289 89.2878 301.434 86.7237C299.579 84.1595 296.863 82.4839 293.806 81.5879C290.749 80.692 289.228 77.6817 295.71 67.5752Z" fill="#E6E456"/>
</g>
<defs>
<clipPath id="clip0_1935_7849">
<rect width="621" height="312" fill="white" transform="translate(0 0.5)"/>
</clipPath>
</defs>
</svg>
