<svg width="600" height="401" viewBox="0 0 600 401" fill="none" xmlns="http://www.w3.org/2000/svg">
<path d="M57.803 335.133C66.9617 340.953 76.1104 346.773 85.1724 352.747C76.1371 350.056 67.0317 347.338 58.7299 342.866C50.428 338.398 42.883 331.997 38.6487 323.562C34.4178 315.127 33.951 304.485 38.9121 296.457C45.9304 285.101 62.7608 279.507 74.7001 286.106C79.6612 288.844 84.4423 293.339 90.0468 292.494C101.233 290.801 109.034 279.454 119.603 275.597C131.019 271.433 143.752 270.835 155.481 274.084C160.192 275.39 174.202 280.669 174.766 271.256C174.932 268.434 173.695 265.703 173.619 262.878C173.239 249.26 210.874 261.973 218.819 255.388C225.43 249.908 226.961 240.822 233.095 234.808C240.334 227.712 249.666 223.131 257.671 217.007C267.32 209.62 277.002 196.731 272.224 183.972C270.077 178.238 265.326 172.855 266.566 166.858C267.296 163.315 270.007 160.567 272.591 158.042C279.746 151.043 286.901 144.048 294.056 137.048C295.683 135.459 297.646 133.746 299.903 134.026C302.507 134.35 304.068 137.316 303.941 139.94C303.814 142.565 302.507 144.959 301.5 147.387C296.723 158.901 298.677 173.076 306.898 182.529C311.876 188.252 319.108 192.777 320.725 200.194C322.425 207.987 318.261 218.763 325.316 222.463C328.983 224.386 333.598 222.67 337.532 223.959C345.52 226.58 344.93 237.96 348.661 245.507C353.582 255.461 366.132 258.253 375.467 264.25C385.553 270.729 392.127 281.331 400.556 289.859C411.382 300.815 425.548 308.412 440.655 311.357C447.13 312.619 455.341 312.232 458.355 306.358C461.516 300.201 456.785 291.562 461.193 286.226C466.244 280.115 475.756 285.435 482.637 289.361C493.13 295.352 505.389 297.199 517.288 299.289C529.184 301.379 541.444 303.994 551.176 311.157C560.908 318.323 567.416 331.276 563.522 342.726C559.164 355.545 544.398 361.329 531.075 363.64C481.451 372.245 431.403 355.078 381.268 350.296C330.017 345.411 278.842 353.518 227.861 357.819C175.282 362.257 124.468 357.315 72.2129 351.451" fill="#DFE6F8"/>
<path opacity="0.27" d="M275.968 233.043C275.874 237.494 276.468 241.992 275.651 246.37C274.834 250.744 272.174 255.172 267.893 256.374C261.861 258.067 254.276 253.135 249.685 257.399C246.184 260.652 247.711 266.552 245.804 270.936C241.933 279.839 227.344 277.685 221.499 285.432C219.425 288.18 218.635 292.007 215.758 293.897C212.274 296.181 207.709 294.478 203.675 293.443C187.288 289.242 170.481 297.594 156.144 306.59C146.549 312.614 137.214 319.048 128.172 325.877C126.271 327.313 124.294 328.882 123.474 331.12C122.17 334.663 124.201 338.54 126.558 341.485C137.574 355.239 160.252 341.074 177.819 342.216C208.243 344.189 231.014 338.813 261.488 337.838C282.963 337.15 302.537 341.111 323.668 337.214C343.546 333.547 367.885 339.658 388.096 339.478C397.381 339.394 407.41 341.144 415.385 336.382C416.456 335.745 417.489 334.967 418.113 333.888C419.91 330.779 417.623 326.936 415.209 324.284C405.587 313.726 374.72 317.599 366.464 305.935C344.44 274.813 334.167 276.156 309.765 267.674C306.595 266.572 303.284 265.46 300.903 263.093C298.523 260.725 297.422 256.681 299.4 253.966C301.23 251.455 304.874 250.968 306.995 248.694C311.482 243.875 306.201 236.309 306.238 229.72C306.254 227.005 307.231 224.394 307.611 221.709C308.852 212.961 300.02 199.427 290.058 202.545C280.425 205.551 276.144 224.731 275.968 233.043Z" fill="#97A5D7"/>
<path d="M273.601 164.873C270.873 166.913 268.066 169.044 266.429 172.032C264.192 176.113 267.539 179.472 268.903 183.115C269.72 185.289 270.13 186.829 269.676 189.143C269.293 191.096 266.803 193.16 268.286 195.243C270.37 198.145 274.117 196.449 276.138 200.509C277.792 203.832 277.145 207.732 279.272 210.895C281.476 214.174 285.227 216.742 286.607 220.535C288.061 224.522 284.843 230.392 289.284 233.187C291.651 234.68 294.965 233.414 296.662 231.187C300.23 226.502 300.177 217.763 301.067 212.19C301.48 209.602 303.284 206.183 305.668 207.265C307.165 207.946 309.202 218.755 312.329 213.162C312.943 212.063 312.859 210.724 312.759 209.472C312.616 207.706 312.023 205.715 312.293 203.942C313.273 197.504 314.813 194.041 312.816 187.266C312.603 186.538 312.443 185.616 313.033 185.139C313.343 184.888 313.77 184.852 314.166 184.828C316.654 184.671 319.531 184.835 320.865 182.22C322.302 179.402 318.934 177.265 317.981 174.904C318.171 175.378 324.835 177.292 325.916 177.886C323.875 173.004 318.961 169.234 313.956 167.785" fill="#FD867A"/>
<path d="M276.914 188.237C277.631 190.547 278.705 192.638 280.178 194.327C281.335 195.653 282.746 196.798 283.499 198.415C284.146 199.8 284.239 201.403 284.833 202.816C287.127 208.275 291.411 202.448 292.918 199.744C294.785 196.401 296.632 195.416 300.146 195.466C300.54 195.473 300.98 195.456 301.25 195.155C301.503 194.872 301.507 194.434 301.45 194.047C301.14 191.896 298.829 188.901 301.09 187.068C301.983 186.343 303.147 186.126 304.221 185.749C309.605 183.849 309.475 173.941 309.272 169.186C309.195 167.396 308.488 165.69 307.525 164.211C302.15 155.946 288.284 155.916 281.762 162.915C276.468 168.592 274.324 179.872 276.914 188.237Z" fill="#FC4F4F"/>
<path d="M344.04 171.747C341.172 174.035 320.331 158.313 300 140.191L323.052 121.799C336.061 145.761 346.65 169.664 344.04 171.747Z" fill="#3E497A"/>
<path d="M243.004 171.747C245.871 174.035 266.712 158.313 287.044 140.191L263.992 121.799C250.982 145.761 240.393 169.664 243.004 171.747Z" fill="#3E497A"/>
<path d="M261.488 125.186C261.488 152.642 275.408 167.702 292.579 167.702C309.749 167.702 323.669 152.642 323.669 125.186C323.669 114.22 320.075 97.6242 315.217 81.6426H269.7C264.946 97.6242 261.488 114.22 261.488 125.186Z" fill="#97A5D7"/>
<path d="M292.578 34.9824C286.917 34.9824 276.845 57.6158 269.696 81.6417H315.213C307.908 57.6158 297.733 34.9824 292.578 34.9824Z" fill="#3E497A"/>
<path d="M315.63 164.421H269.527C265.902 164.421 262.938 161.453 262.938 157.823C262.938 154.193 265.902 151.225 269.527 151.225H315.63C319.254 151.225 322.218 154.193 322.218 157.823C322.218 161.453 319.254 164.421 315.63 164.421Z" fill="#6E7BAF"/>
<path d="M313.539 168.022H271.616C270.63 168.022 269.819 167.21 269.819 166.222C269.819 165.233 270.63 164.422 271.616 164.422H313.539C314.526 164.422 315.336 165.233 315.336 166.222C315.336 167.21 314.529 168.022 313.539 168.022Z" fill="#3E497A"/>
<path d="M292.578 100.238C283.563 100.238 276.258 107.558 276.258 116.584C276.258 117.085 276.288 117.576 276.331 118.063C285.907 114.166 295.412 110.139 304.727 105.695C301.74 102.352 297.409 100.238 292.578 100.238Z" fill="white"/>
<path d="M276.331 118.064C277.078 126.399 284.063 132.93 292.578 132.93C301.593 132.93 308.898 125.611 308.898 116.585C308.898 112.397 307.311 108.587 304.727 105.695C295.412 110.14 285.907 114.167 276.331 118.064Z" fill="#DFE6F8"/>
</svg>
