<svg width="30" height="30" viewBox="0 0 30 30" fill="none" xmlns="http://www.w3.org/2000/svg">
<path d="M13.125 4.92188H5.625C5.43852 4.92188 5.25968 4.99595 5.12782 5.12782C4.99595 5.25968 4.92188 5.43852 4.92188 5.625V13.125C4.92188 13.3115 4.99595 13.4903 5.12782 13.6222C5.25968 13.754 5.43852 13.8281 5.625 13.8281H13.125C13.3115 13.8281 13.4903 13.754 13.6222 13.6222C13.754 13.4903 13.8281 13.3115 13.8281 13.125V5.625C13.8281 5.43852 13.754 5.25968 13.6222 5.12782C13.4903 4.99595 13.3115 4.92188 13.125 4.92188V4.92188ZM12.4219 12.4219H6.32812V6.32812H12.4219V12.4219ZM24.375 4.92188H16.875C16.6885 4.92188 16.5097 4.99595 16.3778 5.12782C16.246 5.25968 16.1719 5.43852 16.1719 5.625V13.125C16.1719 13.3115 16.246 13.4903 16.3778 13.6222C16.5097 13.754 16.6885 13.8281 16.875 13.8281H24.375C24.5615 13.8281 24.7403 13.754 24.8722 13.6222C25.004 13.4903 25.0781 13.3115 25.0781 13.125V5.625C25.0781 5.43852 25.004 5.25968 24.8722 5.12782C24.7403 4.99595 24.5615 4.92188 24.375 4.92188ZM23.6719 12.4219H17.5781V6.32812H23.6719V12.4219ZM13.125 16.1719H5.625C5.43852 16.1719 5.25968 16.246 5.12782 16.3778C4.99595 16.5097 4.92188 16.6885 4.92188 16.875V24.375C4.92188 24.5615 4.99595 24.7403 5.12782 24.8722C5.25968 25.004 5.43852 25.0781 5.625 25.0781H13.125C13.3115 25.0781 13.4903 25.004 13.6222 24.8722C13.754 24.7403 13.8281 24.5615 13.8281 24.375V16.875C13.8281 16.6885 13.754 16.5097 13.6222 16.3778C13.4903 16.246 13.3115 16.1719 13.125 16.1719V16.1719ZM12.4219 23.6719H6.32812V17.5781H12.4219V23.6719ZM24.375 16.1719H16.875C16.6885 16.1719 16.5097 16.246 16.3778 16.3778C16.246 16.5097 16.1719 16.6885 16.1719 16.875V24.375C16.1719 24.5615 16.246 24.7403 16.3778 24.8722C16.5097 25.004 16.6885 25.0781 16.875 25.0781H24.375C24.5615 25.0781 24.7403 25.004 24.8722 24.8722C25.004 24.7403 25.0781 24.5615 25.0781 24.375V16.875C25.0781 16.6885 25.004 16.5097 24.8722 16.3778C24.7403 16.246 24.5615 16.1719 24.375 16.1719ZM23.6719 23.6719H17.5781V17.5781H23.6719V23.6719Z" fill="#A9A9A9"/>
</svg>
